<?xml version="1.0" encoding="UTF-8"?>
<svg version="1.1" xmlns="http://www.w3.org/2000/svg" width="679" height="679">
<path d="M0 0 C0.97656555 0.00215515 1.9531311 0.0043103 2.95928955 0.00653076 C38.46876849 0.13150563 73.21573749 5.17119573 107 16.3125 C107.91507324 16.61381836 108.83014648 16.91513672 109.77294922 17.22558594 C139.03030862 27.02817577 166.52755972 40.97332641 192 58.3125 C192.65339355 58.7559375 193.30678711 59.199375 193.97998047 59.65625 C212.43037862 72.26853819 228.83829329 87.11077265 244.6875 102.8125 C245.56688232 103.67875 246.44626465 104.545 247.35229492 105.4375 C253.3379785 111.41586818 258.7292093 117.70121744 264 124.3125 C264.98824469 125.49808932 265.97985502 126.68089131 266.9765625 127.859375 C304.51124696 172.90933894 327.4502693 229.89019392 337 287.3125 C337.17934082 288.38854492 337.35868164 289.46458984 337.54345703 290.57324219 C342.62722647 323.0144561 342.48029103 358.94283852 337 391.3125 C336.80132324 392.52389648 336.60264648 393.73529297 336.39794922 394.98339844 C327.70037837 446.80398163 307.85613838 495.69852593 277 538.3125 C276.52739746 538.96911621 276.05479492 539.62573242 275.56787109 540.30224609 C264.63911879 555.41275137 252.50945808 568.97862709 239.375 582.1875 C238.58145615 582.98908035 238.58145615 582.98908035 237.7718811 583.80685425 C230.85068941 590.78114046 223.71922234 597.21234212 216 603.3125 C214.72164885 604.36047038 213.44532853 605.4109274 212.171875 606.46484375 C203.7890377 613.31971571 195.17060622 619.55526544 186 625.3125 C185.26185059 625.77624023 184.52370117 626.23998047 183.76318359 626.71777344 C147.88794481 649.08097663 110.21876066 664.16180219 69 673.3125 C68.28247559 673.47733887 67.56495117 673.64217773 66.82568359 673.81201172 C62.24546039 674.85419714 57.64827744 675.65171546 53 676.3125 C51.58074219 676.51552734 51.58074219 676.51552734 50.1328125 676.72265625 C-40.18353391 688.97829739 -131.84868453 666.52119405 -204.80859375 611.46875 C-207.70806025 609.24096535 -210.55723122 606.95673822 -213.38330078 604.63671875 C-214.93071916 603.3692471 -216.49432713 602.12161861 -218.05859375 600.875 C-226.65520492 593.88024184 -234.46528816 586.05942938 -242.3125 578.25 C-242.87239624 577.69537079 -243.43229248 577.14074158 -244.00915527 576.56930542 C-251.15308705 569.47733665 -257.77792952 562.2389306 -264 554.3125 C-264.82628906 553.29800781 -265.65257812 552.28351562 -266.50390625 551.23828125 C-303.41072867 504.38692603 -326.25512621 449.94338757 -336 391.3125 C-336.18079102 390.2488623 -336.36158203 389.18522461 -336.54785156 388.08935547 C-341.7968983 355.70284147 -341.38844465 319.64316789 -336 287.3125 C-335.80132324 286.11786133 -335.60264648 284.92322266 -335.39794922 283.69238281 C-324.9101635 222.90250571 -298.75142715 164.86611882 -258 118.3125 C-257.52594727 117.76932129 -257.05189453 117.22614258 -256.56347656 116.66650391 C-249.82418276 109.01564966 -242.61066425 101.8031749 -235.4375 94.5625 C-234.57503662 93.6869043 -233.71257324 92.81130859 -232.82397461 91.90917969 C-226.8648539 85.94272225 -220.62169921 80.52989829 -214 75.3125 C-212.9015979 74.44117432 -212.9015979 74.44117432 -211.78100586 73.55224609 C-202.16790129 65.98606883 -192.33036772 58.86572187 -182 52.3125 C-181.43732422 51.95269043 -180.87464844 51.59288086 -180.29492188 51.22216797 C-142.26977429 27.08743496 -99.63693285 11.31522146 -55.25 4.0625 C-53.87074341 3.83590698 -53.87074341 3.83590698 -52.46362305 3.60473633 C-35.023854 0.93062835 -17.62690124 -0.07077557 0 0 Z " fill="#F8F6EC" transform="translate(339,-0.3125)"/>
<path d="M0 0 C60.91025641 0 60.91025641 0 72 5 C73.46179688 5.63421875 73.46179688 5.63421875 74.953125 6.28125 C88.31051756 12.44620041 97.65829335 22.21795533 103.60546875 35.6171875 C105.34916624 40.3727759 105.37887758 44.79537743 105.25 49.8125 C105.23541748 50.69615234 105.22083496 51.57980469 105.20581055 52.49023438 C105.15536853 54.99436966 105.0801702 57.49667208 105 60 C104.97099609 61.64548828 104.97099609 61.64548828 104.94140625 63.32421875 C104.49105449 72.6724295 100.70470479 81.61744086 95 89 C94.55527344 89.61101562 94.11054688 90.22203125 93.65234375 90.8515625 C85.12206142 101.70828547 71.47549498 108.05680373 58 110 C55.99954372 110.0822882 53.99677215 110.11789688 51.99462891 110.11352539 C50.22937866 110.11334412 50.22937866 110.11334412 48.4284668 110.11315918 C47.20683838 110.10804321 45.98520996 110.10292725 44.7265625 110.09765625 C43.5924292 110.09664917 42.4582959 110.09564209 41.28979492 110.09460449 C37.06818627 110.08938706 32.84659208 110.07542581 28.625 110.0625 C19.17875 110.041875 9.7325 110.02125 0 110 C0 73.7 0 37.4 0 0 Z " fill="#494949" transform="translate(176,208)"/>
<path d="M0 0 C26.73 0 53.46 0 81 0 C81 8.25 81 16.5 81 25 C63.84 25 46.68 25 29 25 C29 30.61 29 36.22 29 42 C45.83 42 62.66 42 80 42 C80 50.25 80 58.5 80 67 C63.17 67 46.34 67 29 67 C29 73.27 29 79.54 29 86 C46.16 86 63.32 86 81 86 C81 94.25 81 102.5 81 111 C54.27 111 27.54 111 0 111 C0 74.37 0 37.74 0 0 Z " fill="#4D4D4D" transform="translate(294,208)"/>
<path d="M0 0 C2.15863068 1.77243498 3.06106717 3.12826463 4.07421875 5.703125 C5.39421875 5.703125 6.71421875 5.703125 8.07421875 5.703125 C9.2391191 4.23867884 10.40332613 2.7736706 11.5625 1.3046875 C16.47602742 -3.90085835 22.77139625 -4.59194 29.63671875 -4.796875 C40.0025403 -4.47617593 45.88834628 -0.56708869 53.07421875 6.703125 C55.07421875 9.703125 55.07421875 9.703125 55.07421875 13.703125 C55.73421875 13.703125 56.39421875 13.703125 57.07421875 13.703125 C57.92970194 33.07031388 57.92970194 33.07031388 51.390625 40.65625 C49.67424965 42.41322777 47.90338308 44.06494071 46.07421875 45.703125 C45.26984375 46.5075 44.46546875 47.311875 43.63671875 48.140625 C43.12109375 48.65625 42.60546875 49.171875 42.07421875 49.703125 C42.75484375 49.88875 43.43546875 50.074375 44.13671875 50.265625 C49.46886408 52.87497272 53.71575147 57.23325254 56.07421875 62.703125 C58.04642353 70.59194411 58.57506178 79.71721022 54.34765625 86.8828125 C48.39659283 95.38954732 48.39659283 95.38954732 44.94921875 96.20703125 C44.33046875 96.37074219 43.71171875 96.53445313 43.07421875 96.703125 C42.57921875 98.188125 42.57921875 98.188125 42.07421875 99.703125 C35.97113435 102.97420261 28.12880876 102.74805792 21.54296875 101.05078125 C15.8549526 98.71749293 10.38327552 95.08912921 6.07421875 90.703125 C5.44921875 88.796875 5.44921875 88.796875 5.07421875 86.703125 C4.72875 85.95933594 4.38328125 85.21554687 4.02734375 84.44921875 C2.78630943 80.87361576 2.78258769 77.5020127 2.82421875 73.765625 C2.81261719 72.73018555 2.81261719 72.73018555 2.80078125 71.67382812 C2.81336855 68.35392813 3.0864033 65.66705696 4.15234375 62.51171875 C5.20711838 59.29823164 5.30649522 57.84361017 4.07421875 54.703125 C1.94440567 52.62535123 1.94440567 52.62535123 -0.73828125 50.953125 C-1.61097656 50.36015625 -2.48367188 49.7671875 -3.3828125 49.15625 C-9.14784287 45.86194693 -15.43499564 46.28464014 -21.92578125 46.703125 C-23.97758045 47.31606413 -23.97758045 47.31606413 -25.73828125 48.078125 C-28.92578125 48.703125 -28.92578125 48.703125 -30.69140625 47.81640625 C-36.14976297 43.48531885 -41.80979794 36.74621969 -42.92578125 29.703125 C-43.07147985 27.06373888 -43.15640806 24.4677222 -43.17578125 21.828125 C-43.19640625 21.13332031 -43.21703125 20.43851562 -43.23828125 19.72265625 C-43.29207062 12.58211768 -40.58927021 7.91525973 -35.92578125 2.703125 C-25.57433515 -6.80901466 -11.90999001 -7.04985956 0 0 Z " fill="#E7C905" transform="translate(329.92578125,341.296875)"/>
<path d="M0 0 C8.91 0 17.82 0 27 0 C31.65659747 5.82074684 36.12949687 11.41447337 40.25 17.5625 C41.18527136 18.93943189 42.12150489 20.31571063 43.05859375 21.69140625 C43.5366748 22.39410645 44.01475586 23.09680664 44.50732422 23.82080078 C47.07580696 27.57060074 49.69195899 31.28647159 52.3125 35 C53.03131348 36.02202515 53.03131348 36.02202515 53.76464844 37.06469727 C56.68051413 41.19281647 59.67722695 45.24321144 62.76538086 49.24438477 C64.25672157 51.36505533 65.11725225 53.57244369 66 56 C66.66 56.33 67.32 56.66 68 57 C68 38.19 68 19.38 68 0 C76.58 0 85.16 0 94 0 C94 33.33 94 66.66 94 101 C85.42 101 76.84 101 68 101 C61.3000615 93.60215124 61.3000615 93.60215124 59.9140625 90.1796875 C58.16799078 86.22899794 55.9766167 82.96599749 53.375 79.5 C52.55379653 78.36710866 51.7362901 77.23153116 50.921875 76.09375 C50.47263672 75.46726562 50.02339844 74.84078125 49.56054688 74.1953125 C46.21417703 69.48777844 42.92265118 64.74172065 39.625 60 C38.9345459 59.00806641 38.2440918 58.01613281 37.53271484 56.99414062 C32.07981436 49.14666493 32.07981436 49.14666493 29.6484375 45.375 C28.21846869 42.90932465 28.21846869 42.90932465 26 42 C26 61.8 26 81.6 26 102 C17.42 102 8.84 102 0 102 C0 68.34 0 34.68 0 0 Z " fill="#494949" transform="translate(402,339)"/>
<path d="M0 0 C10.56 0 21.12 0 32 0 C34.475 7.425 34.475 7.425 37 15 C38.4921851 18.74962898 38.4921851 18.74962898 40.01269531 22.48779297 C42.02196629 27.60040384 43.66730615 32.84323119 45.375 38.0625 C48.20519762 46.65834813 51.05632379 55.23704347 54.23583984 63.71118164 C55.74306358 67.83820833 56.51046669 71.66095478 57 76 C57.66 76 58.32 76 59 76 C59.37125 74.741875 59.7425 73.48375 60.125 72.1875 C67.25832782 48.48862415 67.25832782 48.48862415 70.9375 39.78125 C72.47911521 35.74584548 73.723581 31.62573092 75 27.5 C76.80574403 21.66922153 78.65157334 15.92438233 81.04296875 10.30078125 C82.45562414 6.90464237 83.70848825 3.44403135 85 0 C95.56 0 106.12 0 117 0 C116.34 2.97 115.68 5.94 115 9 C114.34 9 113.68 9 113 9 C112.81824219 9.7734375 112.63648438 10.546875 112.44921875 11.34375 C110.7434548 18.41173603 108.69835261 24.97820666 105.875 31.6640625 C103.05826065 38.33621383 100.51867958 45.05247876 98.12109375 51.88671875 C97.30198007 54.16140028 96.39448433 56.40479634 95.4375 58.625 C94.13383294 61.68578354 93.08740762 64.71288193 92.0625 67.875 C90.35803936 73.09286994 88.30686713 78.02581775 86 83 C84.8179131 85.75820277 83.90662095 88.34683648 83.125 91.25 C82.00934899 94.96883671 80.57321657 98.29599253 78.90234375 101.7890625 C77.92779009 104.1769299 77.47504122 106.47080419 77 109 C71.76728431 109.07403712 66.53487199 109.12854783 61.30175781 109.16479492 C59.52077933 109.17990173 57.73983816 109.20038835 55.95898438 109.22631836 C53.40225022 109.26261943 50.8460069 109.27970688 48.2890625 109.29296875 C47.49005524 109.30845261 46.69104797 109.32393646 45.86782837 109.33988953 C43.62353516 109.34057617 43.62353516 109.34057617 40 109 C38.18846072 106.28269108 37.43826386 104.22698997 36.60302734 101.12792969 C35.35813881 96.73503557 33.80984145 92.43691454 32.3125 88.125 C31.95945801 87.10776855 31.60641602 86.09053711 31.24267578 85.04248047 C28.87164553 78.29040642 26.29853904 71.66485522 23.50732422 65.07714844 C21.17534445 59.53952887 19.16023175 53.92327973 17.203125 48.24389648 C15.55855007 43.4998035 13.77382889 38.83532613 11.875 34.1875 C9.68098528 28.80219115 7.78452954 23.39473359 6.01171875 17.859375 C4.60768107 13.89120673 2.81615223 10.14594668 0.953125 6.375 C0 4 0 4 0 0 Z " fill="#494949" transform="translate(388,209)"/>
<path d="M0 0 C1.02416016 -0.01998047 2.04832031 -0.03996094 3.10351562 -0.06054688 C9.99811252 -0.05614138 14.87833186 1.22736496 20.9375 4.4375 C22.24706369 5.00680258 23.55918378 5.57030172 24.875 6.125 C32.84157933 10.17984577 40.57551046 17.60010416 44.9375 25.4375 C44.9375 26.4275 44.9375 27.4175 44.9375 28.4375 C43.99648438 28.83582031 43.05546875 29.23414063 42.0859375 29.64453125 C40.828083 30.17958876 39.57027286 30.71475058 38.3125 31.25 C37.38630859 31.64155273 37.38630859 31.64155273 36.44140625 32.04101562 C33.45492016 33.3142018 30.54656573 34.64043127 27.6640625 36.13671875 C24.9375 37.4375 24.9375 37.4375 21.9375 37.4375 C20.2890625 35.828125 20.2890625 35.828125 18.5625 33.6875 C13.49921338 27.67750643 10.05534764 24.94421759 2.17578125 24.1640625 C-6.96104285 23.84689638 -13.05508608 26.0979884 -20.0625 31.9375 C-22.02634919 34.39231149 -23.12396947 36.45126651 -24.0625 39.4375 C-24.7225 39.4375 -25.3825 39.4375 -26.0625 39.4375 C-28.1106859 50.70252246 -27.78201631 60.25057771 -22.0625 70.4375 C-20.50405625 72.37081265 -18.95553447 73.81489902 -17.0625 75.4375 C-17.0625 76.0975 -17.0625 76.7575 -17.0625 77.4375 C-15.7425 77.7675 -14.4225 78.0975 -13.0625 78.4375 C-13.0625 79.0975 -13.0625 79.7575 -13.0625 80.4375 C1.06681761 82.50166412 1.06681761 82.50166412 13.9375 77.4375 C17.12354746 74.77898981 19.59548132 72.46355605 20.9375 68.4375 C25.9138655 68.04963622 28.36321924 68.92258965 32.4375 71.75 C36.19788743 74.28428566 39.82132567 76.54628477 43.9375 78.4375 C41.05466646 87.66256732 33.7651594 94.79430187 25.484375 99.328125 C16.58865636 103.89454786 9.93117769 105.66335861 -0.125 105.75 C-1.22005859 105.77900391 -2.31511719 105.80800781 -3.44335938 105.83789062 C-10.88565122 105.89551409 -16.39214488 104.69237997 -23.0625 101.4375 C-24.16980469 100.95667969 -25.27710938 100.47585938 -26.41796875 99.98046875 C-36.23520347 95.2817371 -42.9261599 89.14574722 -48.0625 79.4375 C-48.0625 78.4475 -48.0625 77.4575 -48.0625 76.4375 C-48.7225 76.4375 -49.3825 76.4375 -50.0625 76.4375 C-50.548364 74.91879302 -51.02581201 73.39739301 -51.5 71.875 C-51.76683594 71.02808594 -52.03367188 70.18117188 -52.30859375 69.30859375 C-56.07207269 54.97617395 -55.12803781 39.75668578 -48.58984375 26.4375 C-41.01795562 13.54917977 -29.08725633 5.15260216 -14.85009766 1.04394531 C-9.91130264 -0.03049564 -5.03575158 -0.03499259 0 0 Z " fill="#4A4A4A" transform="translate(230.0625,336.5625)"/>
<path d="M0 0 C30.48672566 0 30.48672566 0 38 6 C38.70898438 6.54140625 39.41796875 7.0828125 40.1484375 7.640625 C44.74721514 11.65751649 47.0539706 15.98841315 48 22 C48.73260222 33.18990814 47.92617923 41.95604166 41 51 C38.52580175 53.60208921 36.03618598 56.06843039 33 58 C31.68 58 30.36 58 29 58 C29 58.66 29 59.32 29 60 C20.34873163 64.32563419 9.67241209 61 0 61 C0 40.87 0 20.74 0 0 Z " fill="#FAFAFA" transform="translate(204,233)"/>
<path d="M0 0 C0.66 0 1.32 0 2 0 C2 0.99 2 1.98 2 3 C2.73524902 2.95286865 3.47049805 2.9057373 4.22802734 2.85717773 C26.57892174 1.60882849 26.57892174 1.60882849 31.8828125 4.86328125 C38.2798799 10.69702481 40.58728379 16.25434296 41.19921875 24.7734375 C41.56239672 34.71699989 38.83018777 40.175401 32.5625 47.65234375 C31 49 31 49 28.875 49.50390625 C27.946875 49.74947266 27.946875 49.74947266 27 50 C26.67 50.99 26.34 51.98 26 53 C19.8969156 56.27107761 12.05459001 56.04493292 5.46875 54.34765625 C-0.21926615 52.01436793 -5.69094323 48.38600421 -10 44 C-10.625 42.09375 -10.625 42.09375 -11 40 C-11.34417969 39.25234375 -11.68835938 38.5046875 -12.04296875 37.734375 C-14.60260421 30.42113083 -14.12462517 19.13204291 -11.33203125 11.96484375 C-8.9291258 8.42038204 -5.54449412 6.08086494 -2.08203125 3.62890625 C-1.39496094 3.09136719 -0.70789063 2.55382812 0 2 C0 1.34 0 0.68 0 0 Z " fill="#72B208" transform="translate(346,388)"/>
<path d="M0 0 C2.38444972 1.87613679 3.49214371 2.82976381 4.75 5.625 C4.625 8.125 4.625 8.125 3.63671875 10.78125 C2.47576628 14.61822032 2.29385085 18.15646172 2.3125 22.125 C2.29638672 22.81078125 2.28027344 23.4965625 2.26367188 24.203125 C2.25913312 28.95973858 3.35269536 32.00300264 5.625 36.125 C4.47617497 40.86390324 -0.06604974 44.23108275 -3.9375 46.875 C-11.08973777 50.54281424 -20.05989144 49.96648192 -27.6875 48.0625 C-35.49906274 45.39177309 -39.85652154 39.29227094 -43.375 32.125 C-46.34341905 25.29763618 -46.28169312 18.94105864 -43.75 12 C-40.27100909 4.154024 -35.09176326 -1.09472326 -27.375 -4.875 C-17.4818644 -8.12472022 -8.29753882 -5.68806548 0 0 Z " fill="#7708FB" transform="translate(331.375,392.875)"/>
<path d="M0 0 C4.47849654 3.38594024 8.64514954 6.64545869 11.77734375 11.34375 C11.77734375 12.66375 11.77734375 13.98375 11.77734375 15.34375 C12.43734375 15.34375 13.09734375 15.34375 13.77734375 15.34375 C14.63282694 34.71093888 14.63282694 34.71093888 8.09375 42.296875 C6.37807176 44.05313917 4.59629533 45.69599386 2.77734375 47.34375 C2.09671875 48.1275 1.41609375 48.91125 0.71484375 49.71875 C-3.35687967 53.13374384 -9.26645252 52.47972452 -14.34765625 52.46875 C-16.14589844 52.47261719 -16.14589844 52.47261719 -17.98046875 52.4765625 C-20.60990421 52.36885069 -22.73107098 52.12469464 -25.22265625 51.34375 C-25.22265625 50.35375 -25.22265625 49.36375 -25.22265625 48.34375 C-26.27453125 48.3128125 -26.27453125 48.3128125 -27.34765625 48.28125 C-31.60201865 46.89395791 -33.57572764 43.82750828 -36.22265625 40.34375 C-35.73539062 39.35117187 -35.248125 38.35859375 -34.74609375 37.3359375 C-33.06729269 33.40291593 -32.76486729 29.71193995 -32.84765625 25.46875 C-32.84910645 24.76693604 -32.85055664 24.06512207 -32.85205078 23.34204102 C-32.93411779 19.2627447 -33.47869938 16.013845 -35.09765625 12.28125 C-36.45446777 8.8956822 -36.45446777 8.8956822 -35.40234375 6.390625 C-27.57854813 -3.7845846 -10.9814769 -6.72825718 0 0 Z " fill="#E8641D" transform="translate(373.22265625,339.65625)"/>
<path d="M0 0 C2.64 0 5.28 0 8 0 C8.84266711 1.74552473 9.67380038 3.4966208 10.5 5.25 C10.9640625 6.22453125 11.428125 7.1990625 11.90625 8.203125 C13 11 13 11 13 15 C13.66 15 14.32 15 15 15 C15.10957031 14.33613281 15.21914062 13.67226563 15.33203125 12.98828125 C17.15302491 2.84697509 17.15302491 2.84697509 20 0 C22.64 0 25.28 0 28 0 C28 8.58 28 17.16 28 26 C26.02 26 24.04 26 22 26 C21.505 19.565 21.505 19.565 21 13 C20.67 13.99 20.34 14.98 20 16 C19.34 16 18.68 16 18 16 C17.9175 17.27875 17.835 18.5575 17.75 19.875 C17.609375 22.0546875 17.609375 22.0546875 17 24 C14.953125 25.2578125 14.953125 25.2578125 13 26 C12.74605469 25.44570313 12.49210938 24.89140625 12.23046875 24.3203125 C11.88628906 23.59585937 11.54210937 22.87140625 11.1875 22.125 C10.68283203 21.04605469 10.68283203 21.04605469 10.16796875 19.9453125 C9.00532903 17.69457194 9.00532903 17.69457194 6 16 C6 19.3 6 22.6 6 26 C4.02 26 2.04 26 0 26 C0 17.42 0 8.84 0 0 Z " fill="#575757" transform="translate(184,462)"/>
<path d="M0 0 C3.8053125 -0.12375 3.8053125 -0.12375 7.6875 -0.25 C8.87218872 -0.30462402 8.87218872 -0.30462402 10.08081055 -0.36035156 C13.82586065 -0.41906774 15.6745571 -0.19253951 18.984375 1.765625 C21.10271887 4.11386665 21.66526389 4.90499341 21.5625 8 C21.37899517 11.17285763 21.07735534 11.90330583 19 14.5 C18.34 14.995 17.68 15.49 17 16 C17.28875 16.53625 17.5775 17.0725 17.875 17.625 C19.16711808 20.35280484 20.08558592 23.12612718 21 26 C19.02 26 17.04 26 15 26 C11 19.25 11 19.25 11 17 C9.35 17 7.7 17 6 17 C6 19.97 6 22.94 6 26 C4.02 26 2.04 26 0 26 C0 17.42 0 8.84 0 0 Z " fill="#696968" transform="translate(487,462)"/>
<path d="M0 0 C0.99 0 1.98 0 3 0 C3 0.99 3 1.98 3 3 C3.99 3.33 4.98 3.66 6 4 C6.144375 4.763125 6.28875 5.52625 6.4375 6.3125 C6.9632594 9.08172908 6.9632594 9.08172908 8 12 C8.66 12.33 9.32 12.66 10 13 C10.36548445 14.32488113 10.6937566 15.66018514 11 17 C11.350625 17.680625 11.70125 18.36125 12.0625 19.0625 C13 21 13 21 13 24 C13.66 24 14.32 24 15 24 C15.33 26.64 15.66 29.28 16 32 C16.66 32 17.32 32 18 32 C20.75702189 36.79482068 21.53328373 40.58609132 22 46 C22.66 46 23.32 46 24 46 C24.66 49.3 25.32 52.6 26 56 C26.66 56 27.32 56 28 56 C28.10957031 56.71285156 28.21914063 57.42570312 28.33203125 58.16015625 C29.28174363 63.89703674 30.66744618 68.65456415 33 74 C33.81558132 77.30732285 34.39927242 80.64804107 35 84 C35.33083575 85.60468362 35.6641715 87.20885383 36 88.8125 C37.03759768 93.95146805 37.79472622 99.12337056 38.53515625 104.3125 C38.86022844 106.96064787 38.86022844 106.96064787 40 109 C40.39856262 111.54265498 40.7497175 114.07176807 41.0625 116.625 C41.15337891 117.31207031 41.24425781 117.99914062 41.33789062 118.70703125 C41.7724073 122.18969877 42.04267211 125.574776 41.99609375 129.0859375 C41.90079484 132.89157863 41.90079484 132.89157863 42.49194336 136.1796875 C43.06698481 140.50368969 43.1438138 144.68435575 43.1328125 149.0390625 C43.13376923 149.88294525 43.13472595 150.726828 43.13571167 151.59628296 C43.1363886 153.36952795 43.13456849 155.14277548 43.13037109 156.91601562 C43.12500247 159.62375453 43.13033953 162.3313286 43.13671875 165.0390625 C43.13605814 166.76822953 43.13477734 168.49739646 43.1328125 170.2265625 C43.13483673 171.03187408 43.13686096 171.83718567 43.13894653 172.66690063 C43.12262922 176.58988583 42.92081695 180.16476103 42 184 C41.63041504 186.60328092 41.27434284 189.2050869 40.9375 191.8125 C40.84662109 192.50537109 40.75574219 193.19824219 40.66210938 193.91210938 C40.43990535 195.60787692 40.21974473 197.30391201 40 199 C39.67 199 39.34 199 39 199 C38.97269335 196.49992418 38.95301515 194.0001551 38.9375 191.5 C38.92912109 190.80390625 38.92074219 190.1078125 38.91210938 189.390625 C38.90888672 188.69453125 38.90566406 187.9984375 38.90234375 187.28125 C38.89710693 186.65283203 38.89187012 186.02441406 38.88647461 185.37695312 C39 183 39 183 39.49560547 179.29296875 C40.07170242 174.86276618 40.16162942 170.49437099 40.16796875 166.03125 C40.17129715 165.19267456 40.17462555 164.35409912 40.17805481 163.4901123 C40.18309041 161.72192935 40.18546418 159.95373699 40.18530273 158.18554688 C40.18747137 155.53498839 40.20561391 152.88485912 40.22460938 150.234375 C40.25513653 140.85700202 39.84166935 131.77208053 38.49804688 122.48730469 C37.98759773 118.9131598 37.63761549 115.34524396 37.3125 111.75 C36.06692632 101.60460151 33.32771541 91.80493896 30.75390625 81.9296875 C29.21975085 76.0211274 27.92715105 70.08425769 26.72631836 64.09960938 C25.64915005 59.50272573 23.87397286 55.31696582 22 51 C21.51247744 49.69058078 21.03294502 48.37815133 20.5625 47.0625 C18.98180678 42.75072017 16.98868514 38.6462525 14.98828125 34.515625 C14 32 14 32 14 28 C13.34 28 12.68 28 12 28 C11.51080078 26.78763672 11.51080078 26.78763672 11.01171875 25.55078125 C10.57472656 24.48214844 10.13773438 23.41351563 9.6875 22.3125 C9.25824219 21.25675781 8.82898438 20.20101562 8.38671875 19.11328125 C7.1073693 16.24105163 5.64574693 13.67265714 4 11 C2.35151338 7.3860101 0.78141959 3.90709793 0 0 Z " fill="#F0CBB9" transform="translate(616,185)"/>
<path d="M0 0 C1.98 0 3.96 0 6 0 C8.600965 2.600965 9.8370444 4.51113321 11 8 C12.62652316 9.70586575 14.29006566 11.3777546 16 13 C16.33 8.71 16.66 4.42 17 0 C18.98 0 20.96 0 23 0 C23 8.58 23 17.16 23 26 C21.35 26 19.7 26 18 26 C16.19908728 24.07045065 14.82374031 22.35311698 13.375 20.1875 C11.02329588 16.82849599 8.90626629 13.90626629 6 11 C6 15.95 6 20.9 6 26 C4.02 26 2.04 26 0 26 C0 17.42 0 8.84 0 0 Z " fill="#727272" transform="translate(243,462)"/>
<path d="M0 0 C1.134375 0.020625 2.26875 0.04125 3.4375 0.0625 C7.47116628 7.38285732 9.9079873 15.13543975 12.4375 23.0625 C12.7675 24.0525 13.0975 25.0425 13.4375 26.0625 C10.7975 26.0625 8.1575 26.0625 5.4375 26.0625 C5.4375 24.4125 5.4375 22.7625 5.4375 21.0625 C1.8075 21.3925 -1.8225 21.7225 -5.5625 22.0625 C-5.8925 23.3825 -6.2225 24.7025 -6.5625 26.0625 C-8.8725 26.0625 -11.1825 26.0625 -13.5625 26.0625 C-12.95288113 22.59721696 -12.06085807 19.49715819 -10.75 16.234375 C-10.39679688 15.35265625 -10.04359375 14.4709375 -9.6796875 13.5625 C-9.31101563 12.655 -8.94234375 11.7475 -8.5625 10.8125 C-8.19382813 9.88953125 -7.82515625 8.9665625 -7.4453125 8.015625 C-4.24549918 0.07448244 -4.24549918 0.07448244 0 0 Z " fill="#616161" transform="translate(227.5625,461.9375)"/>
<path d="M0 0 C2.64 0 5.28 0 8 0 C10.05681946 3.91775136 11.7407494 7.83248776 13.23828125 11.984375 C13.97442862 13.9323342 14.81283274 15.79854723 15.6875 17.6875 C16.92049084 20.79933403 17.29903718 22.71059106 17 26 C14.69 26 12.38 26 10 26 C10 24.35 10 22.7 10 21 C8.20739868 21.05995322 6.41574205 21.1487241 4.625 21.25 C3.62726563 21.29640625 2.62953125 21.3428125 1.6015625 21.390625 C-1.1526477 21.72160885 -1.1526477 21.72160885 -2.3515625 24.046875 C-2.56554687 24.69140625 -2.77953125 25.3359375 -3 26 C-4.98 26 -6.96 26 -9 26 C-8.30898436 23.92695309 -7.61778069 21.85396872 -6.92578125 19.78125 C-6.27426097 17.82394012 -5.62613074 15.86550017 -4.98046875 13.90625 C-4.63628906 12.8646875 -4.29210937 11.823125 -3.9375 10.75 C-3.45603516 9.28820312 -3.45603516 9.28820312 -2.96484375 7.796875 C-2.05525227 5.16016446 -1.05920415 2.57975055 0 0 Z " fill="#5B5B5B" transform="translate(308,462)"/>
<path d="M0 0 C2.64 0 5.28 0 8 0 C10.01011175 4.99600589 12.00983897 9.99601462 14 15 C14.35191406 15.88171875 14.70382812 16.7634375 15.06640625 17.671875 C16.20828446 20.60655717 17 22.82030643 17 26 C15.02 26 13.04 26 11 26 C10.505 23.525 10.505 23.525 10 21 C6.04 21 2.08 21 -2 21 C-2.33 22.65 -2.66 24.3 -3 26 C-4.98 26 -6.96 26 -9 26 C-8.23935892 21.27651279 -6.66841455 16.92404785 -5.0625 12.4375 C-4.79759766 11.68275391 -4.53269531 10.92800781 -4.25976562 10.15039062 C-3.01448684 6.64321587 -1.71340944 3.31025728 0 0 Z " fill="#5C5C5C" transform="translate(399,462)"/>
<path d="M0 0 C1.32 0 2.64 0 4 0 C4 0.99 4 1.98 4 3 C4.88300781 3.24492188 5.76601563 3.48984375 6.67578125 3.7421875 C10.21356944 5.08081006 12.34166351 6.66302053 15.1875 9.125 C18.59635958 12.33258757 18.59635958 12.33258757 23 13 C24.66666667 14.66666667 26.33333333 16.33333333 28 18 C31.29440756 19.91075639 33.18366637 21 37 21 C37 22.98 37 24.96 37 27 C37.598125 27.12375 38.19625 27.2475 38.8125 27.375 C41 28 41 28 44 30 C44 30.99 44 31.98 44 33 C44.99 33 45.98 33 47 33 C49.1875 34.875 49.1875 34.875 51 37 C51 37.66 51 38.32 51 39 C51.99 39 52.98 39 54 39 C54.33 39.99 54.66 40.98 55 42 C55.9075 42.598125 56.815 43.19625 57.75 43.8125 C61.39481956 46.26574393 63.40422007 48.48806245 66 52 C66 52.66 66 53.32 66 54 C67.98 54.495 67.98 54.495 70 55 C70 55.66 70 56.32 70 57 C71.2375 58.2375 71.2375 58.2375 72.5 59.5 C75 62 75 62 75 64 C75.639375 64.268125 76.27875 64.53625 76.9375 64.8125 C79 66 79 66 80 69 C80.99 69 81.98 69 83 69 C85.81615162 71.81615162 87.16349264 74.17596635 88 78 C88.33 78.99 88.66 79.98 89 81 C89.66 81 90.32 81 91 81 C93.03275651 83.28685107 94.72290465 85.42950958 96.0625 88.1875 C96.99309803 90.34509852 96.99309803 90.34509852 100 92 C100.6875 94.625 100.6875 94.625 101 97 C102.98 97.495 102.98 97.495 105 98 C105.103125 98.639375 105.20625 99.27875 105.3125 99.9375 C105.539375 100.618125 105.76625 101.29875 106 102 C107.485 102.495 107.485 102.495 109 103 C109.12375 103.9075 109.2475 104.815 109.375 105.75 C109.8251528 108.91207158 109.8251528 108.91207158 111.125 111.1875 C112 113 112 113 111 116 C110.65855957 115.46745605 110.31711914 114.93491211 109.96533203 114.38623047 C97.25756975 94.19330235 97.25756975 94.19330235 82.3828125 75.6015625 C81 74 81 74 79.4375 71.3125 C78.00502065 68.73776309 78.00502065 68.73776309 75 66.5 C72 64 72 64 70.6484375 61.6875 C68.67354184 58.4677649 66.32705664 56.13543059 63.625 53.5 C62.68914063 52.5821875 61.75328125 51.664375 60.7890625 50.71875 C59.86867188 49.8215625 58.94828125 48.924375 58 48 C55.75809649 45.77130358 53.52073638 43.5426878 51.33203125 41.26171875 C46.58608831 36.34497067 41.3855674 32.1925193 36 28 C34.61529075 26.89918511 33.23122688 25.79755814 31.84765625 24.6953125 C23.75392081 18.28293919 15.64939805 12.23143096 6.8203125 6.8671875 C4.17411833 5.11527502 2.10315688 3.36732151 0 1 C0 0.67 0 0.34 0 0 Z " fill="#EAB390" transform="translate(504,69)"/>
<path d="M0 0 C14.19642857 -0.53571429 14.19642857 -0.53571429 17.875 1.5 C20.03149595 4.03705406 20.4507841 4.77179583 20.75 7.9375 C20.45848834 11.40324971 19.90031595 12.12268806 17.5625 15 C13.56960194 17.86301324 9.74409996 17.35940151 5 17 C5 19.97 5 22.94 5 26 C3.35 26 1.7 26 0 26 C0 17.42 0 8.84 0 0 Z " fill="#575757" transform="translate(419,462)"/>
<path d="M0 0 C1.98 0 3.96 0 6 0 C6 3.3 6 6.6 6 10 C9.96 10 13.92 10 18 10 C18 6.7 18 3.4 18 0 C19.65 0 21.3 0 23 0 C23 8.58 23 17.16 23 26 C21.35 26 19.7 26 18 26 C18 22.37 18 18.74 18 15 C14.04 15 10.08 15 6 15 C6 18.63 6 22.26 6 26 C4.02 26 2.04 26 0 26 C0 17.42 0 8.84 0 0 Z " fill="#626262" transform="translate(364,462)"/>
<path d="M0 0 C5.94 0 11.88 0 18 0 C18 1.65 18 3.3 18 5 C14.04 5 10.08 5 6 5 C6 6.65 6 8.3 6 10 C9.96 10 13.92 10 18 10 C18 11.65 18 13.3 18 15 C13.71 15 9.42 15 5 15 C5 16.98 5 18.96 5 21 C9.29 21 13.58 21 18 21 C18 22.65 18 24.3 18 26 C12.06 26 6.12 26 0 26 C0 17.42 0 8.84 0 0 Z " fill="#5B5B5B" transform="translate(465,462)"/>
<path d="M0 0 C2.61256412 1.04194601 3.88227222 2.04946125 6 4 C6 4.99 6 5.98 6 7 C4.1875 7.625 4.1875 7.625 2 8 C1.01 7.34 0.02 6.68 -1 6 C-5.64487771 5.55140295 -5.64487771 5.55140295 -9.9375 7.0625 C-11.61903731 10.12883274 -11.36051184 12.57513751 -11 16 C-10.25463249 18.5771736 -10.25463249 18.5771736 -8 20 C-4.97134658 20.32756713 -2.03338927 20.22893504 1 20 C1 19.34 1 18.68 1 18 C2.65 18.33 4.3 18.66 6 19 C5.63846513 21.62112783 5.24816228 22.76879642 3.28515625 24.59765625 C-0.91091722 27.17268253 -5.26853944 26.89297988 -10 26 C-13.39046602 24.28729036 -15.27896952 22.38544811 -17 19 C-18.05077183 13.46885383 -18.04048952 8.79394746 -15.1875 3.875 C-10.16094937 -0.43347197 -6.43459616 -0.8280178 0 0 Z " fill="#525252" transform="translate(354,462)"/>
<path d="M0 0 C0.66 0 1.32 0 2 0 C2.495 1.175625 2.99 2.35125 3.5 3.5625 C13.48404903 25.91275713 27.82050336 45.91552647 43 65 C43.80566406 66.01320313 44.61132812 67.02640625 45.44140625 68.0703125 C53.5734765 78.06401677 62.80123114 86.99879267 72 96 C71.34 96.66 70.68 97.32 70 98 C68 96.6875 68 96.6875 66 95 C66 94.01 66 93.02 66 92 C64.8553125 91.62875 64.8553125 91.62875 63.6875 91.25 C60.73919055 89.87869328 59.64165468 88.7648921 58 86 C58 85.34 58 84.68 58 84 C57.01 84 56.02 84 55 84 C53.5 82.35546875 53.5 82.35546875 52 80.1875 C49.54075188 76.67154371 46.92645998 73.87351941 43.8125 70.9375 C42 69 42 69 42 67 C41.38382813 66.91492188 40.76765625 66.82984375 40.1328125 66.7421875 C38 66 38 66 36.8046875 64.2578125 C36.49789062 63.55398438 36.19109375 62.85015625 35.875 62.125 C34.70968082 59.51507026 33.60447772 57.40671658 32 55 C31.01 55.495 31.01 55.495 30 56 C29.54625 54.948125 29.0925 53.89625 28.625 52.8125 C28.34914063 52.17699219 28.07328125 51.54148437 27.7890625 50.88671875 C27.13484992 49.32243818 26.5570307 47.72646326 26 46.125 C25.67 45.42375 25.34 44.7225 25 44 C23.515 43.505 23.515 43.505 22 43 C20.9375 41.2578125 20.9375 41.2578125 20 39.125 C18.6739201 36.13026956 17.34625219 34.26640591 15 32 C14.0152432 30.32591345 13.03510327 28.64848993 12.1015625 26.9453125 C10.97993256 24.96456176 9.75351013 23.08699081 8.5 21.1875 C4.38794577 14.65882313 1.93850657 7.43094186 0 0 Z " fill="#CAA3ED" transform="translate(44,485)"/>
<path d="M0 0 C6.93 0 13.86 0 21 0 C21 1.65 21 3.3 21 5 C18.36 5 15.72 5 13 5 C13 11.93 13 18.86 13 26 C11.02 26 9.04 26 7 26 C7 19.07 7 12.14 7 5 C4.69 5 2.38 5 0 5 C0 3.35 0 1.7 0 0 Z " fill="#626262" transform="translate(441,462)"/>
<path d="M0 0 C1.98 0 3.96 0 6 0 C6 6.93 6 13.86 6 21 C9.63 21 13.26 21 17 21 C17 22.65 17 24.3 17 26 C11.39 26 5.78 26 0 26 C0 17.42 0 8.84 0 0 Z " fill="#5E5E5E" transform="translate(281,462)"/>
<path d="M0 0 C0.99 0 1.98 0 3 0 C3 0.99 3 1.98 3 3 C3.99 3.33 4.98 3.66 6 4 C6.144375 4.763125 6.28875 5.52625 6.4375 6.3125 C6.9632594 9.08172908 6.9632594 9.08172908 8 12 C8.66 12.33 9.32 12.66 10 13 C10.36548445 14.32488113 10.6937566 15.66018514 11 17 C11.350625 17.680625 11.70125 18.36125 12.0625 19.0625 C13 21 13 21 13 24 C13.66 24 14.32 24 15 24 C15.33 26.64 15.66 29.28 16 32 C16.66 32 17.32 32 18 32 C20.75702189 36.79482068 21.53328373 40.58609132 22 46 C22.66 46 23.32 46 24 46 C24.66 49.3 25.32 52.6 26 56 C26.66 56 27.32 56 28 56 C28.10957031 56.71285156 28.21914063 57.42570312 28.33203125 58.16015625 C29.40053087 64.72708984 29.40053087 64.72708984 31.6875 70.9375 C33.08734425 74.20380325 33.02659786 74.80996773 32 78 C29.03602954 71.07625872 26.27345908 64.17934445 24 57 C21.47608551 49.11011604 18.93845179 41.26044517 14.8828125 34 C14 32 14 32 14 28 C13.34 28 12.68 28 12 28 C11.51080078 26.78763672 11.51080078 26.78763672 11.01171875 25.55078125 C10.57472656 24.48214844 10.13773438 23.41351563 9.6875 22.3125 C9.25824219 21.25675781 8.82898438 20.20101562 8.38671875 19.11328125 C7.1073693 16.24105163 5.64574693 13.67265714 4 11 C2.35151338 7.3860101 0.78141959 3.90709793 0 0 Z " fill="#ECBC9F" transform="translate(616,185)"/>
<path d="M0 0 C2.99220268 1.36370299 5.29026529 2.94908083 7.75 5.125 C8.67039062 5.93324219 8.67039062 5.93324219 9.609375 6.7578125 C10.06828125 7.16773438 10.5271875 7.57765625 11 8 C8 11 5 14 2 17 C-1.03852705 15.59023295 -3.5939595 13.91129772 -6.25 11.875 C-6.95640625 11.33617187 -7.6628125 10.79734375 -8.390625 10.2421875 C-8.92171875 9.83226562 -9.4528125 9.42234375 -10 9 C-6.83047153 5.73991357 -3.60062011 2.77762123 0 0 Z " fill="#F7F4F1" transform="translate(336,381)"/>
<path d="M0 0 C0.70125 0.09023438 1.4025 0.18046875 2.125 0.2734375 C4 0.625 4 0.625 6 1.625 C6.02687279 3.43742052 6.04633715 5.24995233 6.0625 7.0625 C6.07410156 8.07183594 6.08570313 9.08117187 6.09765625 10.12109375 C6 12.625 6 12.625 5 13.625 C2.81360547 13.69758946 0.62499611 13.70873783 -1.5625 13.6875 C-3.35880859 13.67396484 -3.35880859 13.67396484 -5.19140625 13.66015625 C-6.11824219 13.64855469 -7.04507813 13.63695312 -8 13.625 C-8.29787234 4.83776596 -8.29787234 4.83776596 -6 0.625 C-3.6150282 -0.5674859 -2.60431911 -0.354264 0 0 Z " fill="#D0E8AE" transform="translate(545,572.375)"/>
<path d="M0 0 C7.43547517 1.8175606 14.22696168 5.03487587 21 8.5625 C29.86198242 12.80886658 39.31483654 15.29275219 48.765625 17.8515625 C49.48427734 18.0465332 50.20292969 18.24150391 50.94335938 18.44238281 C52.81113672 18.94879348 54.67900098 19.45488353 56.546875 19.9609375 C59.07244176 20.72089311 61.39226424 21.54479408 63.82421875 22.52734375 C68.39151106 24.27958924 72.9821086 24.92523525 77.8125 25.5625 C79.48662591 25.78597219 81.15987205 26.01616479 82.83203125 26.25390625 C83.92608276 26.39807983 83.92608276 26.39807983 85.04223633 26.54516602 C87 27 87 27 90 29 C80.02035626 29.16718475 70.03080823 28.42325301 61 24 C59.07396488 23.43807829 57.14398944 22.97008382 55.1875 22.52734375 C49.70005527 21.20447761 44.3465703 19.4872775 39 17.6875 C37.6966303 17.24995318 36.39324436 16.81245473 35.08984375 16.375 C34.4232373 16.15070312 33.75663086 15.92640625 33.06982422 15.6953125 C29.56957149 14.5194786 26.06586337 13.35402577 22.5625 12.1875 C21.29295318 11.76436964 20.02342045 11.34119697 18.75390625 10.91796875 C17.84511719 10.61503906 16.93632812 10.31210937 16 10 C16 9.34 16 8.68 16 8 C15.484375 7.87625 14.96875 7.7525 14.4375 7.625 C11.27297649 6.81358372 8.13875015 5.9054087 5 5 C5 4.34 5 3.68 5 3 C4.360625 2.87625 3.72125 2.7525 3.0625 2.625 C2.381875 2.41875 1.70125 2.2125 1 2 C0.67 1.34 0.34 0.68 0 0 Z " fill="#EADDF5" transform="translate(191,634)"/>
<path d="M0 0 C1.19109375 0.08314453 1.19109375 0.08314453 2.40625 0.16796875 C4.5 0.8125 4.5 0.8125 5.8046875 2.56640625 C6.60849745 5.16298333 6.51890522 6.88394447 6.125 9.5625 C5.95871094 10.76132812 5.95871094 10.76132812 5.7890625 11.984375 C5.64597656 12.88929688 5.64597656 12.88929688 5.5 13.8125 C1.48195309 14.65348656 -1.51803543 14.86654945 -5.5 13.8125 C-7.46237913 9.07970327 -7.67611086 5.81097118 -6.5 0.8125 C-4.05333494 -0.41083253 -2.70770626 -0.23296823 0 0 Z " fill="#CDE6AA" transform="translate(564.5,553.1875)"/>
<path d="M0 0 C1.9375 1 1.9375 1 3 3 C3.3886759 7.08109691 3.53330773 9.74515828 1.9375 13.5 C-0.96134638 15.74426817 -3.45385476 15.2676336 -7 15 C-7 14.34 -7 13.68 -7 13 C-7.66 12.67 -8.32 12.34 -9 12 C-9.51953125 10.0390625 -9.51953125 10.0390625 -9.8125 7.625 C-9.92207031 6.83351563 -10.03164063 6.04203125 -10.14453125 5.2265625 C-10 3 -10 3 -8.73046875 1.234375 C-5.87590437 -0.80183797 -3.37986476 -0.36212837 0 0 Z " fill="#CEE6A7" transform="translate(587,534)"/>
<path d="M0 0 C1.98 0 3.96 0 6 0 C6 8.58 6 17.16 6 26 C4.02 26 2.04 26 0 26 C0 17.42 0 8.84 0 0 Z " fill="#626262" transform="translate(271,462)"/>
<path d="M0 0 C2.64 0 5.28 0 8 0 C8.33 0.99 8.66 1.98 9 3 C9.66 3.66 10.32 4.32 11 5 C11.32752234 7.71454956 11.1308425 10.25230759 11 13 C10 14 10 14 7.27734375 14.09765625 C5.62412109 14.08025391 5.62412109 14.08025391 3.9375 14.0625 C2.83277344 14.05347656 1.72804688 14.04445313 0.58984375 14.03515625 C-0.69212891 14.01775391 -0.69212891 14.01775391 -2 14 C-2.1799928 8.78020872 -1.97094808 4.92737019 0 0 Z " fill="#D0E7A9" transform="translate(599,515)"/>
<path d="M0 0 C1.51400391 0.01740234 1.51400391 0.01740234 3.05859375 0.03515625 C4.07050781 0.04417969 5.08242188 0.05320312 6.125 0.0625 C7.29869141 0.07990234 7.29869141 0.07990234 8.49609375 0.09765625 C9.33406106 4.75303018 9.51226295 8.468441 8.49609375 13.09765625 C5.28889651 14.50882303 4.21219323 13.99179504 0.80859375 12.72265625 C-2.50390625 11.09765625 -2.50390625 11.09765625 -3.50390625 10.09765625 C-3.60181195 8.60027501 -3.63365489 7.09822733 -3.62890625 5.59765625 C-3.63148438 4.78296875 -3.6340625 3.96828125 -3.63671875 3.12890625 C-3.43798713 0.08948149 -3.06238744 0.11943789 0 0 Z " fill="#D6E9B5" transform="translate(601.50390625,495.90234375)"/>
<path d="M0 0 C2.61274609 2.61274609 2.67750935 4.50711829 3.015625 8.08984375 C3 10 3 10 2.0625 12 C-1.31612728 13.63812232 -4.27010401 13.23681879 -8 13 C-8.66 12.67 -9.32 12.34 -10 12 C-10 8.37 -10 4.74 -10 1 C-6.47940432 -0.17353189 -3.693507 -0.20146402 0 0 Z " fill="#D1E8AF" transform="translate(528,592)"/>
<path d="M0 0 C4.29 0 8.58 0 13 0 C12.67 0.99 12.34 1.98 12 3 C9.69 3 7.38 3 5 3 C5 5.97 5 8.94 5 12 C6.65 12 8.3 12 10 12 C9.67 12.66 9.34 13.32 9 14 C7.68 14 6.36 14 5 14 C4.67 17.3 4.34 20.6 4 24 C2.68 24 1.36 24 0 24 C0 16.08 0 8.16 0 0 Z " fill="#484848" transform="translate(488,463)"/>
<path d="M0 0 C10.27083333 0.35416667 10.27083333 0.35416667 13.1875 2.9375 C14.0846875 3.9584375 14.0846875 3.9584375 15 5 C17.65041388 5.93513628 20.23264126 6.44652825 23 7 C23 7.66 23 8.32 23 9 C23.969375 9.12375 24.93875 9.2475 25.9375 9.375 C26.948125 9.58125 27.95875 9.7875 29 10 C29.33 10.66 29.66 11.32 30 12 C31.65204456 12.70211894 33.31923769 13.36971413 35 14 C35.495 14.495 35.495 14.495 36 15 C37.67884238 15.3931648 39.36850045 15.74085452 41.0625 16.0625 C41.98160156 16.23910156 42.90070313 16.41570313 43.84765625 16.59765625 C44.55792969 16.73042969 45.26820313 16.86320312 46 17 C46.495 18.485 46.495 18.485 47 20 C49.31869204 21.46293963 49.31869204 21.46293963 52.0625 22.6875 C52.98160156 23.12449219 53.90070313 23.56148437 54.84765625 24.01171875 C55.55792969 24.33785156 56.26820313 24.66398437 57 25 C57 25.66 57 26.32 57 27 C50.36641026 25.03614751 44.44649873 22.35775697 38.375 19.0625 C37.56804687 18.63259766 36.76109375 18.20269531 35.9296875 17.75976562 C32.33617296 15.83758537 28.77319035 13.87917026 25.25390625 11.82421875 C22.3903451 10.21883693 19.621746 8.92340943 16.5625 7.75 C15.26505859 7.24726562 15.26505859 7.24726562 13.94140625 6.734375 C13.30074219 6.49203125 12.66007812 6.2496875 12 6 C12 5.34 12 4.68 12 4 C11.21753906 3.87882812 10.43507813 3.75765625 9.62890625 3.6328125 C8.61699219 3.46523438 7.60507812 3.29765625 6.5625 3.125 C5.04849609 2.88136719 5.04849609 2.88136719 3.50390625 2.6328125 C2.67761719 2.42398438 1.85132813 2.21515625 1 2 C0.67 1.34 0.34 0.68 0 0 Z " fill="#EFCDB8" transform="translate(447,42)"/>
<path d="M0 0 C0.33 0 0.66 0 1 0 C1.08040527 0.77190674 1.16081055 1.54381348 1.24365234 2.33911133 C1.61223718 5.83120292 1.99346273 9.32180085 2.375 12.8125 C2.50132813 14.02744141 2.62765625 15.24238281 2.7578125 16.49414062 C2.88671875 17.65751953 3.015625 18.82089844 3.1484375 20.01953125 C3.26364746 21.09307861 3.37885742 22.16662598 3.49755859 23.27270508 C3.85249295 26.20640777 3.85249295 26.20640777 6 29 C6.40340783 31.28037483 6.72772862 33.57527925 7 35.875 C7.57360216 40.83126532 7.57360216 40.83126532 9.03125 45.56640625 C10.53469916 49.34321602 10.45322402 53.13516616 10.65625 57.16015625 C10.99432961 59.95315484 11.73210646 61.54280136 13 64 C12.625 67.25 12.625 67.25 12 70 C11.67 70 11.34 70 11 70 C9.30785021 63.01855181 7.70156407 56.15595346 7 49 C6.34 49 5.68 49 5 49 C5.061875 47.7625 5.12375 46.525 5.1875 45.25 C5.20796991 38.81221184 3.89513646 31.79027293 1 26 C-0.36215136 17.37304138 -0.08997803 8.70787352 0 0 Z " fill="#DCC7F2" transform="translate(13,371)"/>
<path d="M0 0 C1.32 0 2.64 0 4 0 C4 0.99 4 1.98 4 3 C4.88300781 3.24492188 5.76601563 3.48984375 6.67578125 3.7421875 C10.21356944 5.08081006 12.34166351 6.66302053 15.1875 9.125 C18.59635958 12.33258757 18.59635958 12.33258757 23 13 C24.66666667 14.66666667 26.33333333 16.33333333 28 18 C31.29440756 19.91075639 33.18366637 21 37 21 C37.28875 22.093125 37.5775 23.18625 37.875 24.3125 C38.81893204 28.04013845 38.81893204 28.04013845 41 31 C37.61790205 29.49856521 35.11544192 27.52752165 32.3125 25.125 C27.4650487 21.09848803 22.46314837 17.37972334 17.3125 13.75 C16.26219604 13.0077417 16.26219604 13.0077417 15.19067383 12.25048828 C11.07612499 9.37141627 6.90929762 6.68961431 2.55541992 4.18457031 C1 3 1 3 0 0 Z " fill="#EEC0A3" transform="translate(504,69)"/>
<path d="M0 0 C2.18711975 1.79582714 2.87068226 3.20145089 4.07421875 5.703125 C5.06421875 6.033125 6.05421875 6.363125 7.07421875 6.703125 C7.07421875 7.033125 7.07421875 7.363125 7.07421875 7.703125 C5.09421875 8.033125 3.11421875 8.363125 1.07421875 8.703125 C1.40421875 7.053125 1.73421875 5.403125 2.07421875 3.703125 C0.75421875 3.373125 -0.56578125 3.043125 -1.92578125 2.703125 C-1.92578125 2.043125 -1.92578125 1.383125 -1.92578125 0.703125 C-7.21865665 -0.16101792 -12.44137347 -0.43319288 -17.80078125 -0.484375 C-19.09757812 -0.49855469 -20.394375 -0.51273437 -21.73046875 -0.52734375 C-25.01841489 -0.64051148 -25.01841489 -0.64051148 -26.92578125 1.703125 C-30.05078125 1.828125 -30.05078125 1.828125 -32.92578125 1.703125 C-25.88147727 -8.86333097 -9.29790448 -5.50369234 0 0 Z " fill="#E3CF43" transform="translate(329.92578125,341.296875)"/>
<path d="M0 0 C0 0.66 0 1.32 0 2 C-0.99 2.495 -0.99 2.495 -2 3 C-7.71662211 10.33722214 -8.73523018 18.73303798 -7.671875 27.796875 C-7.18631735 30.4958669 -7.18631735 30.4958669 -6 34 C-5.34 34.33 -4.68 34.66 -4 35 C-3.375 38.0625 -3.375 38.0625 -3 41 C-8.50613942 36.41155048 -11.19642308 30.77275986 -12.38671875 23.703125 C-12.83568506 14.97150439 -9.05081678 7.57008933 -3.3671875 1.1796875 C-2 0 -2 0 0 0 Z " fill="#8739E1" transform="translate(298,393)"/>
<path d="M0 0 C0.99 0 1.98 0 3 0 C3 7.92 3 15.84 3 24 C-2 24 -2 24 -3.875 22.3125 C-5.27861489 19.42729162 -4.92054342 18.01268757 -4 15 C-2.68 15 -1.36 15 0 15 C0 10.05 0 5.1 0 0 Z " fill="#474747" transform="translate(262,463)"/>
<path d="M0 0 C1.98 0 3.96 0 6 0 C6.66 2.31 7.32 4.62 8 7 C6.35 7.33 4.7 7.66 3 8 C3 13.28 3 18.56 3 24 C2.01 24 1.02 24 0 24 C0 16.08 0 8.16 0 0 Z " fill="#474747" transform="translate(244,463)"/>
<path d="M0 0 C4.95 0.99 4.95 0.99 10 2 C10 2.66 10 3.32 10 4 C12.35424675 4.02726927 14.70816962 4.04696719 17.0625 4.0625 C19.02896484 4.07990234 19.02896484 4.07990234 21.03515625 4.09765625 C24.8163519 4.00452335 28.27920707 3.61448726 32 3 C31 6 31 6 28.828125 7.1640625 C21.11244062 9.44466534 12.94962594 8.82977071 5.8125 5.15625 C3.53487261 3.7032808 1.71431606 2.08699346 0 0 Z " fill="#8FBB44" transform="translate(341,435)"/>
<path d="M0 0 C0.66 0.33 1.32 0.66 2 1 C2 2.32 2 3.64 2 5 C2.66 5 3.32 5 4 5 C4.85044069 24.25303235 4.85044069 24.25303235 -1.6484375 31.953125 C-4.84406965 35.27434968 -8.32597476 38.21664755 -12 41 C-11.67 39.35 -11.34 37.7 -11 36 C-9.02 35.505 -9.02 35.505 -7 35 C-6.8453125 34.0409375 -6.8453125 34.0409375 -6.6875 33.0625 C-6.460625 32.381875 -6.23375 31.70125 -6 31 C-5.01 30.67 -4.02 30.34 -3 30 C-1.85790183 28.21771064 -1.85790183 28.21771064 -1 26 C-0.65453125 25.27039063 -0.3090625 24.54078125 0.046875 23.7890625 C2.52477083 16.53817062 1.42201524 7.46558001 0 0 Z " fill="#D97139" transform="translate(383,350)"/>
<path d="M0 0 C1.6167519 2.42512785 2.59832188 4.28276218 3.62109375 6.94921875 C3.91693359 7.71556641 4.21277344 8.48191406 4.51757812 9.27148438 C4.82115234 10.06876953 5.12472656 10.86605469 5.4375 11.6875 C5.73720703 12.46544922 6.03691406 13.24339844 6.34570312 14.04492188 C7.76758217 17.74304113 9.16968487 21.44808158 10.5546875 25.16015625 C12.29576689 29.81984825 14.15775658 34.43111079 16.01171875 39.046875 C17 42 17 42 17 46 C13.65469987 42.65469987 12.07540658 39.35731853 11.8125 34.625 C11.874375 33.75875 11.93625 32.8925 12 32 C11.01 31.67 10.02 31.34 9 31 C6.66017555 27.37652186 6.25742369 23.42413897 5.5625 19.2421875 C5.15772553 16.81519705 5.15772553 16.81519705 3 15 C2.1484375 12.5390625 2.1484375 12.5390625 1.375 9.625 C1.11460938 8.66851562 0.85421875 7.71203125 0.5859375 6.7265625 C0 4 0 4 0 0 Z " fill="#CDA8EF" transform="translate(26,440)"/>
<path d="M0 0 C0.33 0 0.66 0 1 0 C1.82102917 4.30449205 2.12852327 8.37429231 2.1328125 12.75390625 C2.13410156 14.02041016 2.13539063 15.28691406 2.13671875 16.59179688 C2.13285156 17.90212891 2.12898437 19.21246094 2.125 20.5625 C2.12886719 21.87669922 2.13273438 23.19089844 2.13671875 24.54492188 C2.13542969 25.81013672 2.13414062 27.07535156 2.1328125 28.37890625 C2.13168457 29.5294751 2.13055664 30.68004395 2.12939453 31.86547852 C2.01188435 34.71210729 1.62659378 37.22970392 1 40 C0.63041504 42.60328092 0.27434284 45.2050869 -0.0625 47.8125 C-0.15337891 48.50537109 -0.24425781 49.19824219 -0.33789062 49.91210938 C-0.56009465 51.60787692 -0.78025527 53.30391201 -1 55 C-1.33 55 -1.66 55 -2 55 C-2.02730665 52.49992418 -2.04698485 50.0001551 -2.0625 47.5 C-2.07087891 46.80390625 -2.07925781 46.1078125 -2.08789062 45.390625 C-2.10663735 41.34133329 -1.81374638 37.50412768 -1.25610352 33.48632812 C-0.62471645 27.35663712 -0.60865508 21.15739128 -0.4375 15 C-0.39422635 13.54295843 -0.3506095 12.08592701 -0.30664062 10.62890625 C-0.20046698 7.08604588 -0.09894889 3.54307037 0 0 Z " fill="#ECE4CC" transform="translate(657,329)"/>
<path d="M0 0 C0.99 0 1.98 0 3 0 C3 7.92 3 15.84 3 24 C2.01 24 1.02 24 0 24 C-0.06058594 23.32453125 -0.12117188 22.6490625 -0.18359375 21.953125 C-0.26738281 21.06109375 -0.35117187 20.1690625 -0.4375 19.25 C-0.51871094 18.36828125 -0.59992188 17.4865625 -0.68359375 16.578125 C-0.96238465 14.30649548 -1.38790577 12.20148177 -2 10 C-1.34 10 -0.68 10 0 10 C0 6.7 0 3.4 0 0 Z " fill="#454545" transform="translate(383,463)"/>
<path d="M0 0 C3.79807197 4.17787917 3.31673011 7.68091413 3.15234375 13.0859375 C2.81789137 19.48341116 2.81789137 19.48341116 2 22 C0.37064759 23.37868281 -1.29749607 24.71274093 -3 26 C-3.67349161 27.66392045 -4.3409159 29.33032028 -5 31 C-6.875 32.375 -6.875 32.375 -9 33 C-11.25 32.625 -11.25 32.625 -13 32 C-12.0925 31.443125 -11.185 30.88625 -10.25 30.3125 C-4.99642398 26.5743786 -1.90733875 22.1624614 0 16 C0.32920132 13.1702055 0.28896508 10.40612402 0.1875 7.5625 C0.17396484 6.83095703 0.16042969 6.09941406 0.14648438 5.34570312 C0.11153874 3.56347578 0.05774805 1.78163427 0 0 Z " fill="#E2F1C5" transform="translate(386,406)"/>
<path d="M0 0 C0.66 0.66 1.32 1.32 2 2 C-3.28 1.67 -8.56 1.34 -14 1 C-14 1.99 -14 2.98 -14 4 C-18.66019417 5.94174757 -18.66019417 5.94174757 -21.1875 6.375 C-22.0846875 6.684375 -22.0846875 6.684375 -23 7 C-23.309375 7.639375 -23.61875 8.27875 -23.9375 8.9375 C-25 11 -25 11 -27.625 12.25 C-28.40875 12.4975 -29.1925 12.745 -30 13 C-28.27685588 6.96899558 -24.13123328 4.31501628 -19.0625 1.1875 C-13.32100936 -1.09870442 -6.04245997 -0.56259905 0 0 Z " fill="#DC824C" transform="translate(367,337)"/>
<path d="M0 0 C0.33 0.66 0.66 1.32 1 2 C0.34 2 -0.32 2 -1 2 C-1.2165625 2.8971875 -1.2165625 2.8971875 -1.4375 3.8125 C-1.8872439 5.56150404 -2.42892341 7.28677023 -3 9 C-3.99 9.495 -3.99 9.495 -5 10 C-8.48831114 16.86646509 -7.63167059 25.65748236 -6 33 C-5.34 33 -4.68 33 -4 33 C-3.67 34.65 -3.34 36.3 -3 38 C-7.64162954 33.9772544 -8.82941814 30.19762601 -9.30078125 24.125 C-9.31521277 22.75007019 -9.31896142 21.37499037 -9.3125 20 C-9.33666992 18.97132813 -9.33666992 18.97132813 -9.36132812 17.921875 C-9.36809372 10.83153075 -6.60369003 6.19771455 -2 1 C-1.34 0.67 -0.68 0.34 0 0 Z " fill="#E5D965" transform="translate(296,343)"/>
<path d="M0 0 C7.39215034 1.80697008 14.14733745 4.99536257 20.8828125 8.5 C25.46054614 10.70281919 30.24024122 12.20283953 35.05078125 13.81640625 C38 15 38 15 39 17 C34.04978591 16.20352971 29.41829847 14.54679293 24.6875 12.9375 C23.85154297 12.65583984 23.01558594 12.37417969 22.15429688 12.08398438 C20.10194376 11.39204818 18.05084517 10.69639291 16 10 C16 9.34 16 8.68 16 8 C15.484375 7.87625 14.96875 7.7525 14.4375 7.625 C11.27297649 6.81358372 8.13875015 5.9054087 5 5 C5 4.34 5 3.68 5 3 C4.360625 2.87625 3.72125 2.7525 3.0625 2.625 C2.381875 2.41875 1.70125 2.2125 1 2 C0.67 1.34 0.34 0.68 0 0 Z " fill="#D8C0F2" transform="translate(191,634)"/>
<path d="M0 0 C2.64 0 5.28 0 8 0 C8 0.33 8 0.66 8 1 C5.69 1 3.38 1 1 1 C1 8.92 1 16.84 1 25 C2.32 25 3.64 25 5 25 C5 19.72 5 14.44 5 9 C5.66 9 6.32 9 7 9 C7.99 11.97 8.98 14.94 10 18 C8.68 17.34 7.36 16.68 6 16 C6 19.3 6 22.6 6 26 C4.02 26 2.04 26 0 26 C0 17.42 0 8.84 0 0 Z " fill="#7E7E7E" transform="translate(184,462)"/>
<path d="M0 0 C-0.33 0.66 -0.66 1.32 -1 2 C-2.0725 1.835 -3.145 1.67 -4.25 1.5 C-12.34008004 0.50849818 -20.27000628 0.18909319 -28 3 C-29.32 1.68 -30.64 0.36 -32 -1 C-21.31024535 -2.40853238 -10.35686448 -3.36365432 0 0 Z " fill="#E2B942" transform="translate(329,387)"/>
<path d="M0 0 C0.66 0 1.32 0 2 0 C3.51680661 3.03361322 3.65453837 6.29482436 4.0625 9.625 C4.15337891 10.31207031 4.24425781 10.99914062 4.33789062 11.70703125 C4.78053137 15.25481347 5.0476325 18.71193856 5.01953125 22.2890625 C4.89498473 26.0235295 4.89498473 26.0235295 5.625 29.75 C6.02486177 33.21546863 5.65475295 34.09470856 4 37 C3.9498877 36.40574219 3.89977539 35.81148438 3.84814453 35.19921875 C3.61378245 32.46552591 3.36945678 29.7328079 3.125 27 C3.04636719 26.06542969 2.96773437 25.13085938 2.88671875 24.16796875 C2.49702208 19.88130534 2.03409334 15.76216693 0.9375 11.59375 C-0.14168519 7.45687345 -0.15118402 4.23315258 0 0 Z " fill="#F1D3C2" transform="translate(653,292)"/>
<path d="M0 0 C1.98 0.99 1.98 0.99 4 2 C4 2.66 4 3.32 4 4 C3.01 4 2.02 4 1 4 C1 22.15 1 40.3 1 59 C0.67 59 0.34 59 0 59 C0 39.53 0 20.06 0 0 Z " fill="#D0D0D0" transform="translate(428,381)"/>
<path d="M0 0 C0.66 0 1.32 0 2 0 C4.67261613 5.37351392 5.47110284 9.5309461 5.375 15.5 C5.38660156 16.22058594 5.39820313 16.94117188 5.41015625 17.68359375 C5.382304 22.81769153 4.28506571 26.40568798 2 31 C1.01 30.67 0.02 30.34 -1 30 C-0.51144531 29.17628906 -0.02289063 28.35257812 0.48046875 27.50390625 C2.20830999 23.51965537 2.41183266 20.19291102 2.3125 15.9375 C2.31572266 15.24333984 2.31894531 14.54917969 2.32226562 13.83398438 C2.27964012 9.75356109 1.65696857 6.70342377 0 3 C0 2.01 0 1.02 0 0 Z " fill="#E3830C" transform="translate(338,349)"/>
<path d="M0 0 C2 0.8125 2 0.8125 3.3125 2.625 C4.10151327 5.13549678 3.87324262 6.36742066 3 8.8125 C1.35 9.1425 -0.3 9.4725 -2 9.8125 C-2 9.1525 -2 8.4925 -2 7.8125 C-2.99 7.8125 -3.98 7.8125 -5 7.8125 C-6 4.8125 -6 4.8125 -5.1875 2.6875 C-3.67121191 0.29336091 -2.8405428 -0.26630089 0 0 Z " fill="#F8EDA6" transform="translate(111,112.1875)"/>
<path d="M0 0 C1.65 0.33 3.3 0.66 5 1 C4.64054253 3.60606665 4.23212513 4.77647209 2.3125 6.625 C-0.58050041 8.3451624 -2.41130863 8.30673898 -5.75 8.1875 C-6.73484375 8.16042969 -7.7196875 8.13335937 -8.734375 8.10546875 C-9.48203125 8.07066406 -10.2296875 8.03585937 -11 8 C-11.33 7.34 -11.66 6.68 -12 6 C-9.36 6.33 -6.72 6.66 -4 7 C-4.95865509 4.66924071 -4.95865509 4.66924071 -8 3 C-5.36 2.67 -2.72 2.34 0 2 C0 1.34 0 0.68 0 0 Z " fill="#666666" transform="translate(355,480)"/>
<path d="M0 0 C0.99 0.33 1.98 0.66 3 1 C2.55269531 1.32871094 2.10539062 1.65742188 1.64453125 1.99609375 C-4.20250684 6.59642862 -8.70567424 12.50653509 -10 20 C-10.06790675 22.24907152 -10.08499984 24.50001605 -10.0625 26.75 C-10.05347656 27.92046875 -10.04445313 29.0909375 -10.03515625 30.296875 C-10.02355469 31.18890625 -10.01195312 32.0809375 -10 33 C-10.66 33 -11.32 33 -12 33 C-12.6352108 22.79427985 -12.20750116 14.15423889 -7 5 C-4.39826183 2.56215085 -3.62040353 2 0 2 C0 1.34 0 0.68 0 0 Z " fill="#F7E3FC" transform="translate(297,390)"/>
<path d="M0 0 C6.15234375 -0.09765625 6.15234375 -0.09765625 8 0 C9 1 9 1 9.0625 4.0625 C9.041875 5.031875 9.02125 6.00125 9 7 C6.03 7 3.06 7 0 7 C0 4.69 0 2.38 0 0 Z " fill="#E2E2E2" transform="translate(493,467)"/>
<path d="M0 0 C6.15234375 -0.09765625 6.15234375 -0.09765625 8 0 C9 1 9 1 9.125 3.5 C9 6 9 6 8 7 C5.32941149 7.14115161 2.67567762 7.04247107 0 7 C0 4.69 0 2.38 0 0 Z " fill="#E5E5E5" transform="translate(424,467)"/>
<path d="M0 0 C9.66987552 -0.68797533 9.66987552 -0.68797533 13.625 1.8125 C14.800625 2.8953125 14.800625 2.8953125 16 4 C16 4.99 16 5.98 16 7 C14.1875 7.625 14.1875 7.625 12 8 C11.01 7.34 10.02 6.68 9 6 C7.0103005 5.60986284 5.00980131 5.26797351 3 5 C4.32 3.68 5.64 2.36 7 1 C4.36 1.33 1.72 1.66 -1 2 C-0.67 1.34 -0.34 0.68 0 0 Z " fill="#616161" transform="translate(344,462)"/>
<path d="M0 0 C17.61279224 -0.53643022 17.61279224 -0.53643022 22.6640625 3.24609375 C24.0625 4.625 24.0625 4.625 26 7 C19.46026201 6.37117904 19.46026201 6.37117904 17.0625 4.4375 C14.39209677 2.57630987 12.27927061 2.8299363 9.10546875 2.9609375 C5.99057803 3.01872768 3.06845133 2.51140855 0 2 C0 1.34 0 0.68 0 0 Z " fill="#DF6629" transform="translate(353,338)"/>
<path d="M0 0 C5.17611312 1.49279751 9.50164976 3.81519736 14.125 6.5 C15.52298167 7.30287755 16.92140555 8.10498572 18.3203125 8.90625 C18.93148926 9.26009766 19.54266602 9.61394531 20.17236328 9.97851562 C22.08674879 11.04848476 24.03165099 12.03347276 26 13 C22.29229733 14.23590089 21.48973028 13.49559869 18 12 C16.34080104 11.63128912 14.6752357 11.28718326 13 11 C13 10.34 13 9.68 13 9 C12.1028125 8.8453125 12.1028125 8.8453125 11.1875 8.6875 C8.64141235 7.88730103 7.86718082 6.86718082 6 5 C4.02379014 3.95377125 2.0262871 2.94560065 0 2 C0 1.34 0 0.68 0 0 Z " fill="#CEACEE" transform="translate(165,620)"/>
<path d="M0 0 C1.37478516 0.01740234 1.37478516 0.01740234 2.77734375 0.03515625 C3.69644531 0.04417969 4.61554687 0.05320312 5.5625 0.0625 C6.27277344 0.07410156 6.98304688 0.08570313 7.71484375 0.09765625 C6.04817708 1.76432292 4.38151042 3.43098958 2.71484375 5.09765625 C1.99296875 5.86078125 1.27109375 6.62390625 0.52734375 7.41015625 C-1.28515625 9.09765625 -1.28515625 9.09765625 -3.28515625 9.09765625 C-3.3828125 2.9453125 -3.3828125 2.9453125 -3.28515625 1.09765625 C-2.28515625 0.09765625 -2.28515625 0.09765625 0 0 Z " fill="#C0E474" transform="translate(559.28515625,591.90234375)"/>
<path d="M0 0 C3.37483413 -0.08767555 6.74937215 -0.14061628 10.125 -0.1875 C11.55199219 -0.22520508 11.55199219 -0.22520508 13.0078125 -0.26367188 C18.46921074 -0.32056144 22.2531332 -0.04470749 27 3 C27 3.66 27 4.32 27 5 C26.236875 4.690625 25.47375 4.38125 24.6875 4.0625 C17.54733384 1.23964361 8.78178306 0.51841964 1.33984375 2.82421875 C-1.60362406 4.30420537 -4.26120349 6.17413566 -7 8 C-7 6.68 -7 5.36 -7 4 C-4.69 3.34 -2.38 2.68 0 2 C0 1.34 0 0.68 0 0 Z " fill="#F9F4BD" transform="translate(302,336)"/>
<path d="M0 0 C-4.18579154 1.39526385 -8.28019693 1.00835231 -12.63867188 0.87304688 C-14.42603349 0.84322828 -16.21440364 0.91516866 -18 1 C-18.66 1.66 -19.32 2.32 -20 3 C-23.125 3.125 -23.125 3.125 -26 3 C-23.70898589 -0.43652116 -22.34769951 -0.79983806 -18.421875 -1.65234375 C-11.92569485 -2.58485993 -6.03951126 -2.74226457 0 0 Z " fill="#E1C819" transform="translate(323,340)"/>
<path d="M0 0 C0.09765625 6.15234375 0.09765625 6.15234375 0 8 C-1 9 -1 9 -3.72265625 9.09765625 C-5.37587891 9.08025391 -5.37587891 9.08025391 -7.0625 9.0625 C-8.16722656 9.05347656 -9.27195312 9.04445313 -10.41015625 9.03515625 C-11.69212891 9.01775391 -11.69212891 9.01775391 -13 9 C-12.41476562 8.74476563 -11.82953125 8.48953125 -11.2265625 8.2265625 C-8.79056287 6.88462586 -7.2678452 5.4012616 -5.375 3.375 C-2.22040816 0 -2.22040816 0 0 0 Z " fill="#C6E288" transform="translate(610,520)"/>
<path d="M0 0 C2.7972908 2.06756277 3.02692273 3.14440371 3.6875 6.6875 C3.790625 7.780625 3.89375 8.87375 4 10 C1.69 10 -0.62 10 -3 10 C-2.25 2.25 -2.25 2.25 0 0 Z " fill="#D0D0D0" transform="translate(312,469)"/>
<path d="M0 0 C0.66 0.66 1.32 1.32 2 2 C-0.97 1.505 -0.97 1.505 -4 1 C-4 0.34 -4 -0.32 -4 -1 C-6.7294586 -0.85856168 -9.45848123 -0.71200471 -12.1875 -0.5625 C-12.95642578 -0.52318359 -13.72535156 -0.48386719 -14.51757812 -0.44335938 C-18.43251075 -0.22492966 -22.17120688 0.08692108 -26 1 C-19.92062946 -5.99127613 -7.32777511 -4.14178593 0 0 Z " fill="#94439D" transform="translate(327,390)"/>
<path d="M0 0 C1.77115979 3.54231959 0.95001838 7.96912897 0.78515625 11.8828125 C0.68552962 16.75546048 1.61357624 19.64445062 4 24 C3.67 24.66 3.34 25.32 3 26 C-0.52265239 23.15071402 -1.89015887 21.74968488 -2.55859375 17.1875 C-2.54410341 15.79115834 -2.50312599 14.39487391 -2.4375 13 C-2.43169922 12.30132812 -2.42589844 11.60265625 -2.41992188 10.8828125 C-2.32485707 6.85206488 -1.76468325 3.62858563 0 0 Z " fill="#724598" transform="translate(333,405)"/>
<path d="M0 0 C0.66 0 1.32 0 2 0 C1.58565093 4.83407252 -0.37793954 6.89537674 -4 10 C-4.99 10.33 -5.98 10.66 -7 11 C-8.23277127 12.86022072 -8.23277127 12.86022072 -9.1875 15.0625 C-9.53167969 15.79597656 -9.87585938 16.52945312 -10.23046875 17.28515625 C-10.48441406 17.85105469 -10.73835938 18.41695313 -11 19 C-11.9318688 16.48395423 -12.03614214 15.14571229 -11.3828125 12.51171875 C-9.67215941 9.40451554 -7.72141783 7.90879348 -4.875 5.8125 C-3.21736672 4.58453654 -1.58286299 3.32294637 0 2 C0 1.34 0 0.68 0 0 Z " fill="#8EA54C" transform="translate(346,388)"/>
<path d="M0 0 C0.66 0 1.32 0 2 0 C3.60355101 3.50776784 4.22036864 6.14354879 4 10 C2.02 10 0.04 10 -2 10 C-1.125 2.25 -1.125 2.25 0 0 Z " fill="#F1F1F1" transform="translate(402,468)"/>
<path d="M0 0 C0.33 0 0.66 0 1 0 C1.45525123 7.58752051 1.51864702 13.64946906 -3 20 C-5.25 22.5 -5.25 22.5 -7 24 C-6.67 21.69 -6.34 19.38 -6 17 C-5.01 17 -4.02 17 -3 17 C-2.855625 15.865625 -2.71125 14.73125 -2.5625 13.5625 C-2 10 -2 10 -1 9 C-0.76807135 7.48530552 -0.58784762 5.96245438 -0.4375 4.4375 C-0.35371094 3.61121094 -0.26992188 2.78492188 -0.18359375 1.93359375 C-0.12300781 1.29550781 -0.06242187 0.65742188 0 0 Z " fill="#8AB63B" transform="translate(386,410)"/>
<path d="M0 0 C4.9505518 -0.16781532 8.50267199 -0.248664 13 2 C13.68707031 2.33773437 14.37414062 2.67546875 15.08203125 3.0234375 C17.0622769 4.00142222 19.03347551 4.99477904 21 6 C21 6.33 21 6.66 21 7 C15.17025717 6.47948725 10.38625981 5.25097425 5 3 C4.01 2.608125 3.02 2.21625 2 1.8125 C1.34 1.544375 0.68 1.27625 0 1 C0 0.67 0 0.34 0 0 Z " fill="#F3D7C8" transform="translate(426,35)"/>
<path d="M0 0 C5.96392565 3.60974447 10.89628532 8.27956824 16 13 C15.01 13.33 14.02 13.66 13 14 C9.8125 11.6875 9.8125 11.6875 7 9 C7 8.34 7 7.68 7 7 C6.4225 6.7525 5.845 6.505 5.25 6.25 C2.6997003 4.83316683 0.98214299 3.12372463 -1 1 C-0.67 0.67 -0.34 0.34 0 0 Z " fill="#C8A1EE" transform="translate(118,584)"/>
<path d="M0 0 C2.62901288 1.52206009 4.84365964 2.84365964 7 5 C6.66384435 9.81823105 4.99072936 13.67232747 3 18 C2.67 18 2.34 18 2 18 C2 15.36 2 12.72 2 10 C2.66 10 3.32 10 4 10 C3.40138258 7.64828869 2.73075648 5.3140622 2 3 C1.34 2.67 0.68 2.34 0 2 C0 1.34 0 0.68 0 0 Z " fill="#7834C3" transform="translate(329,392)"/>
<path d="M0 0 C7.26 0 14.52 0 22 0 C19 3 19 3 16.07421875 3.36328125 C14.39779297 3.33814453 14.39779297 3.33814453 12.6875 3.3125 C11.57761719 3.30863281 10.46773438 3.30476563 9.32421875 3.30078125 C5.93670531 2.99427298 3.16991499 2.20370448 0 1 C0 0.67 0 0.34 0 0 Z " fill="#8CA10A" transform="translate(348,391)"/>
<path d="M0 0 C7.25160335 1.819794 14.12380756 4.06158371 21 7 C16.980307 8.21365463 14.94801348 7.47082855 11 6 C9.205625 5.566875 9.205625 5.566875 7.375 5.125 C3.79611851 3.9320395 2.50834688 2.70550951 0 0 Z " fill="#DECDF4" transform="translate(229,649)"/>
<path d="M0 0 C1.29449495 3.88348484 1.13203312 6.90697336 1 11 C0 12 0 12 -2.94140625 12.09765625 C-4.73384766 12.08025391 -4.73384766 12.08025391 -6.5625 12.0625 C-8.35880859 12.04896484 -8.35880859 12.04896484 -10.19140625 12.03515625 C-11.11824219 12.02355469 -12.04507813 12.01195312 -13 12 C-13 9.36 -13 6.72 -13 4 C-12.67 4 -12.34 4 -12 4 C-11.67 5.98 -11.34 7.96 -11 10 C-8.03 10 -5.06 10 -2 10 C-1.34 6.7 -0.68 3.4 0 0 Z " fill="#C4DF99" transform="translate(550,574)"/>
<path d="M0 0 C0.77923828 0.00902344 1.55847656 0.01804687 2.36132812 0.02734375 C4.26185447 0.05066309 6.16222008 0.08652414 8.0625 0.125 C8.0625 0.455 8.0625 0.785 8.0625 1.125 C2.7825 1.125 -2.4975 1.125 -7.9375 1.125 C-7.9375 1.785 -7.9375 2.445 -7.9375 3.125 C-12.3925 4.61 -12.3925 4.61 -16.9375 6.125 C-16.6075 4.805 -16.2775 3.485 -15.9375 2.125 C-10.46690419 0.27967286 -5.74930072 -0.12809068 0 0 Z " fill="#7817D8" transform="translate(314.9375,388.875)"/>
<path d="M0 0 C0.99 0 1.98 0 3 0 C3 0.99 3 1.98 3 3 C3.99 3.33 4.98 3.66 6 4 C6.144375 4.763125 6.28875 5.52625 6.4375 6.3125 C6.9632594 9.08172908 6.9632594 9.08172908 8 12 C8.66 12.33 9.32 12.66 10 13 C9.67 13.99 9.34 14.98 9 16 C9 15.34 9 14.68 9 14 C8.38511719 13.92394531 7.77023437 13.84789062 7.13671875 13.76953125 C5 13 5 13 3.76953125 11.07421875 C3.45371094 10.28660156 3.13789062 9.49898437 2.8125 8.6875 C2.48894531 7.90761719 2.16539062 7.12773437 1.83203125 6.32421875 C1.08158116 4.22789105 0.49155473 2.16979208 0 0 Z " fill="#ECB494" transform="translate(616,185)"/>
<path d="M0 0 C2.28478764 0 4.51890075 0.09796528 6.79296875 0.3125 C6.79296875 0.9725 6.79296875 1.6325 6.79296875 2.3125 C4.48296875 2.6425 2.17296875 2.9725 -0.20703125 3.3125 C-0.76050765 5.38803648 -1.20703125 7.15615964 -1.20703125 9.3125 C-2.19703125 9.6425 -3.18703125 9.9725 -4.20703125 10.3125 C-5.17265717 7.24005388 -5.29875537 5.60732754 -4.33203125 2.5 C-2.20703125 0.3125 -2.20703125 0.3125 0 0 Z " fill="#F7ECA4" transform="translate(143.20703125,85.6875)"/>
<path d="M0 0 C0.75 1.625 0.75 1.625 1 4 C-0.26220093 6.04563599 -1.60287726 8.04402816 -3 10 C-3.33 10.9075 -3.66 11.815 -4 12.75 C-5 15 -5 15 -6.875 16.375 C-9.3334349 17.09806909 -10.61499846 16.85178626 -13 16 C-11.63875 15.1646875 -11.63875 15.1646875 -10.25 14.3125 C-4.73318459 10.38707365 -2.40787557 6.1400827 0 0 Z " fill="#D6ECB3" transform="translate(386,422)"/>
<path d="M0 0 C1.67542976 0.28604898 3.34385343 0.61781233 5 1 C5.33 1.99 5.66 2.98 6 4 C8.31869204 5.46293963 8.31869204 5.46293963 11.0625 6.6875 C11.98160156 7.12449219 12.90070313 7.56148438 13.84765625 8.01171875 C14.55792969 8.33785156 15.26820313 8.66398437 16 9 C16 9.66 16 10.32 16 11 C10.66596833 9.49552953 6.67614997 8.35691849 3 4 C1.68441297 2.97676564 0.35622245 1.96873032 -1 1 C-0.67 0.67 -0.34 0.34 0 0 Z " fill="#EDC1A5" transform="translate(488,58)"/>
<path d="M0 0 C2.64 0 5.28 0 8 0 C7.4375 1.875 7.4375 1.875 6 4 C2.375 5.25 2.375 5.25 -1 6 C-0.67 4.02 -0.34 2.04 0 0 Z " fill="#C7E494" transform="translate(557,573)"/>
<path d="M0 0 C2.36038857 3.54058286 3.69776886 7.09806253 5.1875 11.0625 C5.47302734 11.79533203 5.75855469 12.52816406 6.05273438 13.28320312 C6.76356416 15.16664262 7.38849705 17.08200952 8 19 C7.67 19.66 7.34 20.32 7 21 C6 19 5 17 4 15 C3.649375 14.360625 3.29875 13.72125 2.9375 13.0625 C0.96843663 8.73056059 0 4.75022912 0 0 Z " fill="#D2B5F0" transform="translate(26,440)"/>
<path d="M0 0 C0.33 0 0.66 0 1 0 C1.08152344 2.54232342 1.14073716 5.08199202 1.1875 7.625 C1.22520508 8.69427734 1.22520508 8.69427734 1.26367188 9.78515625 C1.32991312 14.59868692 0.65443674 17.82231506 -2 22 C-2.66 22.33 -3.32 22.66 -4 23 C-4 21.68 -4 20.36 -4 19 C-3.34 19 -2.68 19 -2 19 C-1.34 12.73 -0.68 6.46 0 0 Z " fill="#F1B514" transform="translate(340,357)"/>
<path d="M0 0 C0.66 0 1.32 0 2 0 C2.99 2.97 3.98 5.94 5 9 C3.68 8.34 2.36 7.68 1 7 C1 10.3 1 13.6 1 17 C0.67 17 0.34 17 0 17 C0 11.39 0 5.78 0 0 Z " fill="#B1B1B1" transform="translate(189,471)"/>
<path d="M0 0 C3.83663072 1.34929464 6.65172569 3.07751025 9.8125 5.625 C10.99779297 6.57246094 10.99779297 6.57246094 12.20703125 7.5390625 C12.79871094 8.02117188 13.39039063 8.50328125 14 9 C13.01 9.495 13.01 9.495 12 10 C11.01 9.67 10.02 9.34 9 9 C9 8.34 9 7.68 9 7 C7.68 6.67 6.36 6.34 5 6 C5 5.34 5 4.68 5 4 C2.69 3.34 0.38 2.68 -2 2 C-1.34 1.34 -0.68 0.68 0 0 Z " fill="#CFA8F1" transform="translate(145,606)"/>
<path d="M0 0 C1.32 1.32 2.64 2.64 4 4 C2.9789114 7.67591895 2.08564783 8.9339798 -1 11.3125 C-4 13 -4 13 -6 13 C-5.67 12.01 -5.34 11.02 -5 10 C-1.9375 8.8125 -1.9375 8.8125 1 8 C0.67 5.36 0.34 2.72 0 0 Z " fill="#7421D5" transform="translate(332,426)"/>
<path d="M0 0 C4 2 4 2 5 4 C4.071875 3.9175 3.14375 3.835 2.1875 3.75 C-1.09105222 3.64696955 -1.09105222 3.64696955 -2.875 6 C-3.24625 6.66 -3.6175 7.32 -4 8 C-5.32 7.67 -6.64 7.34 -8 7 C-5.36 4.69 -2.72 2.38 0 0 Z " fill="#F7EAB3" transform="translate(336,381)"/>
<path d="M0 0 C1.5 1.1875 1.5 1.1875 3 3 C3.1875 5.6875 3.1875 5.6875 3 8 C1.35 8 -0.3 8 -2 8 C-1.125 1.125 -1.125 1.125 0 0 Z " fill="#ECECEC" transform="translate(227,470)"/>
<path d="M0 0 C0.33 0 0.66 0 1 0 C1.06058594 0.72445313 1.12117188 1.44890625 1.18359375 2.1953125 C1.61483433 7.17116533 2.07047641 12.08680391 3 17 C3.66 17 4.32 17 5 17 C5.33 18.65 5.66 20.3 6 22 C2.45279226 18.92575329 0.98557378 16.59934432 0 12 C-0.153692 7.99376193 -0.11670318 4.00680906 0 0 Z " fill="#DFCC3B" transform="translate(287,359)"/>
<path d="M0 0 C0.66 0.33 1.32 0.66 2 1 C0.21427748 2.83947337 -1.57802449 4.67157741 -3.375 6.5 C-3.88289062 7.02464844 -4.39078125 7.54929687 -4.9140625 8.08984375 C-6.23832604 9.43153181 -7.61605865 10.71995815 -9 12 C-9.66 12 -10.32 12 -11 12 C-9.49650623 8.33213607 -7.36271208 6.31089607 -4.375 3.75 C-3.14910156 2.69039063 -3.14910156 2.69039063 -1.8984375 1.609375 C-1.27195313 1.07828125 -0.64546875 0.5471875 0 0 Z " fill="#707070" transform="translate(197,346)"/>
<path d="M0 0 C-1 2 -1 2 -3.375 2.9375 C-5.95982105 3.98373709 -7.2046169 4.92113535 -9 7 C-9 4.69 -9 2.38 -9 0 C-5.93109813 -1.53445094 -3.29905734 -0.54984289 0 0 Z " fill="#F6ECA8" transform="translate(130,108)"/>
<path d="M0 0 C4.09274885 1.57413417 7.35956013 4.54102377 10 8 C10 8.99 10 9.98 10 11 C9.34 11 8.68 11 8 11 C6.5625 9.28515625 6.5625 9.28515625 5 7.0625 C2.95183196 4.01367363 2.95183196 4.01367363 0 2 C0 1.34 0 0.68 0 0 Z " fill="#C09AEC" transform="translate(91,558)"/>
<path d="M0 0 C1.09658936 3.28976808 0.79953138 4.71303767 0 8 C-0.33 8 -0.66 8 -1 8 C-1.04241723 5.66705225 -1.04092937 3.33297433 -1 1 C-0.67 0.67 -0.34 0.34 0 0 Z M-9 8 C-6.36 8 -3.72 8 -1 8 C-2.125 9.5625 -2.125 9.5625 -4 11 C-7.1875 10.6875 -7.1875 10.6875 -10 10 C-9.67 9.34 -9.34 8.68 -9 8 Z " fill="#CDE5A8" transform="translate(570,537)"/>
<path d="M0 0 C2.0625 0.4375 2.0625 0.4375 4 1 C2.76265016 2.03613033 1.50955363 3.05347802 0.25 4.0625 C-0.79414063 4.91521484 -0.79414063 4.91521484 -1.859375 5.78515625 C-4 7 -4 7 -6.265625 6.68359375 C-6.83796875 6.45800781 -7.4103125 6.23242188 -8 6 C-5.76019711 2.64029566 -4.65777032 2.31304575 -1 1 C-0.67 0.67 -0.34 0.34 0 0 Z " fill="#E2C82B" transform="translate(334,380)"/>
<path d="M0 0 C0.99 0.495 0.99 0.495 2 1 C2 2.32 2 3.64 2 5 C2.66 5 3.32 5 4 5 C4 10.28 4 15.56 4 21 C3.67 21 3.34 21 3 21 C2.95101563 20.23816406 2.90203125 19.47632813 2.8515625 18.69140625 C2.38661304 12.27029384 1.56139657 6.24558627 0 0 Z " fill="#DB8E63" transform="translate(383,350)"/>
<path d="M0 0 C0.62390625 0.18820312 1.2478125 0.37640625 1.890625 0.5703125 C0.91496388 1.73991237 -0.065 2.90592427 -1.046875 4.0703125 C-1.59214844 4.72 -2.13742187 5.3696875 -2.69921875 6.0390625 C-3.16457031 6.544375 -3.62992188 7.0496875 -4.109375 7.5703125 C-4.439375 7.5703125 -4.769375 7.5703125 -5.109375 7.5703125 C-5.33990997 4.72704786 -5.46840601 3.10885901 -3.859375 0.6953125 C-2.109375 -0.4296875 -2.109375 -0.4296875 0 0 Z " fill="#C3E372" transform="translate(601.109375,554.4296875)"/>
<path d="M0 0 C0.66 0 1.32 0 2 0 C2 0.66 2 1.32 2 2 C1.01 2.495 1.01 2.495 0 3 C-1.06510435 4.75936265 -1.97376213 6.5716434 -2.90234375 8.40625 C-4 10 -4 10 -7 11 C-5.51131293 6.39860359 -3.25370145 3.49772906 0 0 Z " fill="#8F47DE" transform="translate(296,393)"/>
<path d="M0 0 C0.33 0 0.66 0 1 0 C1 5.61 1 11.22 1 17 C0.01 17.33 -0.98 17.66 -2 18 C-1.34 12.06 -0.68 6.12 0 0 Z " fill="#F4D3BA" transform="translate(387,359)"/>
<path d="M0 0 C0.66 0 1.32 0 2 0 C2.64995297 1.41478135 3.29478722 2.83191487 3.9375 4.25 C4.47697266 5.43335938 4.47697266 5.43335938 5.02734375 6.640625 C5.90033279 8.75823698 6.51338508 10.76669362 7 13 C6.01 13 5.02 13 4 13 C3.32942113 11.2097939 2.6636531 9.41778511 2 7.625 C1.62875 6.62726563 1.2575 5.62953125 0.875 4.6015625 C0 2 0 2 0 0 Z " fill="#D3AEF1" transform="translate(44,485)"/>
<path d="M0 0 C2.31 0 4.62 0 7 0 C8.15941038 3.47823115 7.70820884 5.45895578 7 9 C6.34 7.68 5.68 6.36 5 5 C4.01 5.495 4.01 5.495 3 6 C3.33 4.68 3.66 3.36 4 2 C2.68 1.34 1.36 0.68 0 0 Z " fill="#CFE6A3" transform="translate(623,477)"/>
<path d="M0 0 C1 1 2 2 3 3 C3.804375 3.6496875 3.804375 3.6496875 4.625 4.3125 C6.57157434 6.7014776 6.66586019 8.99274169 7 12 C1.33064516 6.62903226 1.33064516 6.62903226 0 3 C0 2.01 0 1.02 0 0 Z " fill="#7C2DDB" transform="translate(288,422)"/>
<path d="M0 0 C0.99 0.66 1.98 1.32 3 2 C1.35 3.65 -0.3 5.3 -2 7 C-2.66 6.67 -3.32 6.34 -4 6 C-2.84826645 3.53199953 -1.95216435 1.95216435 0 0 Z " fill="#F9EEA2" transform="translate(90,133)"/>
<path d="M0 0 C0.33 1.32 0.66 2.64 1 4 C0.01 4.33 -0.98 4.66 -2 5 C-2 5.99 -2 6.98 -2 8 C-3.98 8.66 -5.96 9.32 -8 10 C-7.59007812 9.52949219 -7.18015625 9.05898438 -6.7578125 8.57421875 C-6.21898437 7.95160156 -5.68015625 7.32898438 -5.125 6.6875 C-4.59132813 6.07261719 -4.05765625 5.45773437 -3.5078125 4.82421875 C-1.8359553 2.86501788 -1.8359553 2.86501788 0 0 Z " fill="#F4D1BC" transform="translate(384,377)"/>
<path d="M0 0 C4.43090471 1.20842856 6.98112756 2.51668565 10 6 C3.52443609 5.38909774 3.52443609 5.38909774 1.0625 3.5625 C0 2 0 2 0 0 Z " fill="#D97741" transform="translate(369,339)"/>
<path d="M0 0 C7.50769231 0.49230769 7.50769231 0.49230769 10 3.0625 C10.33 3.701875 10.66 4.34125 11 5 C10.67 5.66 10.34 6.32 10 7 C9.278125 6.38125 8.55625 5.7625 7.8125 5.125 C5.21618062 3.16333647 3.05328334 2.04684 0 1 C0 0.67 0 0.34 0 0 Z " fill="#F6DDC3" transform="translate(369,338)"/>
<path d="M0 0 C0.33 0 0.66 0 1 0 C2.31965272 7.31807419 2.31965272 7.31807419 1.0625 10 C-2.26635866 11.61399208 -5.33304507 11.18034205 -9 11 C-9 10.67 -9 10.34 -9 10 C-6.36 9.67 -3.72 9.34 -1 9 C-0.67 6.03 -0.34 3.06 0 0 Z " fill="#C7E29C" transform="translate(529,594)"/>
<path d="M0 0 C0.33 0 0.66 0 1 0 C0.67 3.63 0.34 7.26 0 11 C-1.32 11.33 -2.64 11.66 -4 12 C-4 11.01 -4 10.02 -4 9 C-3.34 8.67 -2.68 8.34 -2 8 C-1.31527335 6.11235097 -1.31527335 6.11235097 -0.875 3.9375 C-0.62363281 2.83728516 -0.62363281 2.83728516 -0.3671875 1.71484375 C-0.24601563 1.14894531 -0.12484375 0.58304687 0 0 Z " fill="#C9E3A2" transform="translate(610,498)"/>
<path d="M0 0 C2 3 2 3 2 5 C2.66 5 3.32 5 4 5 C4 5.66 4 6.32 4 7 C0.08597051 5.73058503 -1.79072873 4.48832306 -4 1 C-2.68 0.67 -1.36 0.34 0 0 Z " fill="#8232DD" transform="translate(299,433)"/>
<path d="M0 0 C0.33 0 0.66 0 1 0 C0.14285714 8.57142857 0.14285714 8.57142857 -2 12 C-2.99 11.67 -3.98 11.34 -5 11 C-4.72285156 10.45730469 -4.44570313 9.91460937 -4.16015625 9.35546875 C-3.79792969 8.64003906 -3.43570312 7.92460937 -3.0625 7.1875 C-2.52302734 6.12595703 -2.52302734 6.12595703 -1.97265625 5.04296875 C-0.89269484 2.88189715 -0.89269484 2.88189715 0 0 Z " fill="#DF730F" transform="translate(342,368)"/>
<path d="M0 0 C0.66 0.33 1.32 0.66 2 1 C1.07038578 2.15224028 0.1309875 3.29659176 -0.8125 4.4375 C-1.59560547 5.39462891 -1.59560547 5.39462891 -2.39453125 6.37109375 C-4 8 -4 8 -7 9 C-5.44499019 5.18315774 -2.96404505 2.80804268 0 0 Z " fill="#C8C8C8" transform="translate(214,364)"/>
<path d="M0 0 C2.97 0.495 2.97 0.495 6 1 C6 1.99 6 2.98 6 4 C6.99 4.33 7.98 4.66 9 5 C8.67 5.99 8.34 6.98 8 8 C6 6.6875 6 6.6875 4 5 C4 4.01 4 3.02 4 2 C2.68 1.67 1.36 1.34 0 1 C0 0.67 0 0.34 0 0 Z " fill="#FAF5C7" transform="translate(325,337)"/>
<path d="M0 0 C4.04420651 1.77945087 7.46078487 4.39529673 11 7 C10.01 7.495 10.01 7.495 9 8 C7.49460339 7.05016642 5.99579653 6.08988109 4.5 5.125 C3.6646875 4.59132813 2.829375 4.05765625 1.96875 3.5078125 C1.3190625 3.01023437 0.669375 2.51265625 0 2 C0 1.34 0 0.68 0 0 Z " fill="#C9A3ED" transform="translate(134,598)"/>
<path d="M0 0 C0 3 0 3 -1.53125 4.60546875 C-2.1809375 5.12753906 -2.830625 5.64960937 -3.5 6.1875 C-4.1496875 6.71730469 -4.799375 7.24710938 -5.46875 7.79296875 C-5.9740625 8.19128906 -6.479375 8.58960938 -7 9 C-5.64978174 4.58110387 -3.73884332 2.65654657 0 0 Z " fill="#CFE798" transform="translate(608,518)"/>
<path d="M0 0 C0.825 0.309375 1.65 0.61875 2.5 0.9375 C6.39126155 2.11877583 9.96166953 2.58224168 14 3 C14 3.33 14 3.66 14 4 C12.39592672 4.02708567 10.7917215 4.04643483 9.1875 4.0625 C7.84751953 4.07990234 7.84751953 4.07990234 6.48046875 4.09765625 C4 4 4 4 1 3 C0.67 2.01 0.34 1.02 0 0 Z " fill="#E3F3C9" transform="translate(348,440)"/>
<path d="M0 0 C0.66 0 1.32 0 2 0 C2 1.65 2 3.3 2 5 C-0.31 5.33 -2.62 5.66 -5 6 C-3.38405168 3.95880212 -1.7143618 1.95927063 0 0 Z " fill="#E8CAF7" transform="translate(335,432)"/>
<path d="M0 0 C2.475 0.495 2.475 0.495 5 1 C5.33 3.31 5.66 5.62 6 8 C2.52082818 5.68055212 1.70570234 3.73630036 0 0 Z " fill="#ECBF98" transform="translate(582,137)"/>
<path d="M0 0 C0.99 0.495 0.99 0.495 2 1 C1.01 1.495 1.01 1.495 0 2 C0 1.34 0 0.68 0 0 Z M0 2 C-0.33 2.99 -0.66 3.98 -1 5 C-2.875 5.5625 -2.875 5.5625 -5 6 C-5.99 6.66 -6.98 7.32 -8 8 C-7.1875 5.5625 -7.1875 5.5625 -6 3 C-3 2 -3 2 0 2 Z " fill="#F9EFA0" transform="translate(166,68)"/>
<path d="M0 0 C0.66 0 1.32 0 2 0 C2.66 2.31 3.32 4.62 4 7 C3.34 6.67 2.68 6.34 2 6 C2 5.34 2 4.68 2 4 C1.34 4 0.68 4 0 4 C-0.33 4.99 -0.66 5.98 -1 7 C-1.33 6.34 -1.66 5.68 -2 5 C-1.0625 2.375 -1.0625 2.375 0 0 Z " fill="#ABABAB" transform="translate(402,468)"/>
<path d="M0 0 C1.32 0.33 2.64 0.66 4 1 C3.34 1 2.68 1 2 1 C1.34 2.32 0.68 3.64 0 5 C-2.64 4.67 -5.28 4.34 -8 4 C-8 3.67 -8 3.34 -8 3 C-5.69 3 -3.38 3 -1 3 C-0.67 2.01 -0.34 1.02 0 0 Z " fill="#656565" transform="translate(501,463)"/>
<path d="M0 0 C0.33 0 0.66 0 1 0 C1.16682272 4.92127034 1.24828052 8.50343896 -1 13 C-1.33 13 -1.66 13 -2 13 C-2 10.36 -2 7.72 -2 5 C-1.34 5 -0.68 5 0 5 C0 3.35 0 1.7 0 0 Z " fill="#6E18D2" transform="translate(333,397)"/>
<path d="M0 0 C5.445 1.485 5.445 1.485 11 3 C11 3.33 11 3.66 11 4 C7.75 4.25 7.75 4.25 4 4 C2.68 2.68 1.36 1.36 0 0 Z " fill="#E6D7F6" transform="translate(229,649)"/>
<path d="M0 0 C1.875 0.625 1.875 0.625 4 2 C5.25 5.125 5.25 5.125 6 8 C5.34 8.66 4.68 9.32 4 10 C1.125 3.375 1.125 3.375 0 0 Z " fill="#C297F1" transform="translate(70,531)"/>
<path d="M0 0 C1.98 0 3.96 0 6 0 C6.33 0.66 6.66 1.32 7 2 C1.375 4 1.375 4 -2 4 C-1.34 2.68 -0.68 1.36 0 0 Z " fill="#797979" transform="translate(251,405)"/>
<path d="M0 0 C0.33 1.32 0.66 2.64 1 4 C-3.29 4 -7.58 4 -12 4 C-12 3.67 -12 3.34 -12 3 C-10.95199219 2.92652344 -10.95199219 2.92652344 -9.8828125 2.8515625 C-8.97273438 2.77679688 -8.06265625 2.70203125 -7.125 2.625 C-6.22007812 2.55539062 -5.31515625 2.48578125 -4.3828125 2.4140625 C-1.82058097 2.20431868 -1.82058097 2.20431868 0 0 Z " fill="#DB6A19" transform="translate(370,386)"/>
<path d="M0 0 C0.33 0.66 0.66 1.32 1 2 C0.34 2 -0.32 2 -1 2 C-1.144375 2.598125 -1.28875 3.19625 -1.4375 3.8125 C-1.8872439 5.56150404 -2.42892341 7.28677023 -3 9 C-3.66 9 -4.32 9 -5 9 C-3.375 2.25 -3.375 2.25 0 0 Z " fill="#E2D048" transform="translate(296,343)"/>
<path d="M0 0 C0.99 0 1.98 0 3 0 C3 0.99 3 1.98 3 3 C3.99 3.33 4.98 3.66 6 4 C5.01 4.495 5.01 4.495 4 5 C3.67 5.66 3.34 6.32 3 7 C0 2.25 0 2.25 0 0 Z " fill="#E4AC8E" transform="translate(616,185)"/>
<path d="M0 0 C0.99 0 1.98 0 3 0 C3 0.66 3 1.32 3 2 C3.99 2 4.98 2 6 2 C6.66 3.98 7.32 5.96 8 8 C6.85073734 7.04578192 5.70569459 6.08647955 4.5625 5.125 C3.92441406 4.59132813 3.28632812 4.05765625 2.62890625 3.5078125 C1 2 1 2 0 0 Z " fill="#E8BD9B" transform="translate(552,106)"/>
<path d="M0 0 C3.79303725 1.00193437 6.71536341 1.81024227 10 4 C9.67 4.66 9.34 5.32 9 6 C7.68 5.67 6.36 5.34 5 5 C5 4.34 5 3.68 5 3 C4.360625 2.87625 3.72125 2.7525 3.0625 2.625 C2.381875 2.41875 1.70125 2.2125 1 2 C0.67 1.34 0.34 0.68 0 0 Z " fill="#D2B4F0" transform="translate(191,634)"/>
<path d="M0 0 C0.66 0 1.32 0 2 0 C1.67 1.65 1.34 3.3 1 5 C0.01 5.33 -0.98 5.66 -2 6 C-2.66 5.67 -3.32 5.34 -4 5 C-4 4.34 -4 3.68 -4 3 C-2.68 3 -1.36 3 0 3 C0 2.01 0 1.02 0 0 Z " fill="#F8E6BC" transform="translate(338,342)"/>
<path d="M0 0 C3.125 -0.1875 3.125 -0.1875 6 0 C5.01 1.485 5.01 1.485 4 3 C0.875 3.1875 0.875 3.1875 -2 3 C-1.34 2.01 -0.68 1.02 0 0 Z " fill="#DFD13A" transform="translate(299,340)"/>
<path d="M0 0 C0.99 0 1.98 0 3 0 C2.43628586 3.26954202 1.50037734 4.82575883 -1 7 C-0.67 4.69 -0.34 2.38 0 0 Z " fill="#7DB124" transform="translate(380,427)"/>
<path d="M0 0 C0.66 0.33 1.32 0.66 2 1 C1.67 1.66 1.34 2.32 1 3 C1.66 3 2.32 3 3 3 C3 3.99 3 4.98 3 6 C0.525 5.01 0.525 5.01 -2 4 C-1.34 2.68 -0.68 1.36 0 0 Z " fill="#E4DCA9" transform="translate(374,387)"/>
<path d="M0 0 C1.32 0.66 2.64 1.32 4 2 C2.35 3.65 0.7 5.3 -1 7 C-2 4 -2 4 -1.0625 1.8125 C-0.5365625 0.9153125 -0.5365625 0.9153125 0 0 Z " fill="#EDEFC8" transform="translate(343,387)"/>
<path d="M0 0 C2.31 0 4.62 0 7 0 C6.67 1.32 6.34 2.64 6 4 C1.125 2.25 1.125 2.25 0 0 Z " fill="#EDD4EF" transform="translate(326,389)"/>
<path d="M0 0 C3.63 0.33 7.26 0.66 11 1 C7 3 7 3 4 4 C2.68 2.68 1.36 1.36 0 0 Z " fill="#E3BF67" transform="translate(297,386)"/>
<path d="M0 0 C0.99 0 1.98 0 3 0 C3.33 3.3 3.66 6.6 4 10 C1.81024227 6.71536341 1.00193437 3.79303725 0 0 Z " fill="#EDCBAC" transform="translate(631,217)"/>
</svg>
